<svg width="400" height="300" viewBox="0 0 400 300" fill="none" xmlns="http://www.w3.org/2000/svg">
<path fill-rule="evenodd" clip-rule="evenodd" d="M285.023 10.1499L282.857 9.11668L287.206 0H122.384L119.309 6.44715L117.316 5.49658L118.184 3.67697C116.632 4.53241 114.849 4.47967 113.16 3.67376C111.455 2.86085 110.276 1.5514 109.746 0H0V11.5639C0.810518 12.8788 0.895741 14.567 0 16.5508V87.4263C0.260687 87.9809 0.420099 88.5817 0.465554 89.2193L0 89.2787V236.894C0.549315 237.009 1.10224 237.197 1.64968 237.458C3.27433 238.233 4.41473 239.521 4.77892 241.211L7.79594 234.885L9.87549 235.877L2.20895 251.95L0.216044 251L1.08395 249.18C0.733221 249.374 0.370651 249.521 0 249.623V300H102.697C102.486 299.926 102.275 299.839 102.066 299.739C99.0987 298.324 97.9023 295.759 99.5142 292.38L102.666 285.773L104.745 286.765L101.707 293.133C100.633 295.386 101.222 297.05 103.193 297.99C105.359 299.023 107.386 298.342 108.564 295.872L111.395 289.937L113.475 290.929L109.148 300H114.008L117.434 292.817L119.427 293.767L118.507 295.695C119.884 294.704 121.645 294.692 123.659 295.653L122.698 297.668C122.535 297.564 122.384 297.491 122.232 297.419C120.001 296.355 117.963 297.058 116.765 299.571L116.56 300H125.055L124.935 298.07C126.581 297.685 128.541 297.982 130.382 298.86C131.088 299.197 131.688 299.577 132.178 300H260.584C257.468 298.331 256.285 294.919 257.904 291.525C259.578 288.016 263.142 286.844 266.499 288.445C268.124 289.22 269.264 290.509 269.629 292.198L272.646 285.873L274.725 286.865L268.46 300H400V212.21L398.656 215.028L396.576 214.036L399.614 207.668C399.784 207.31 399.913 206.969 400 206.642V204.734C399.733 203.935 399.093 203.298 398.118 202.833C395.908 201.779 393.848 202.418 392.66 204.909L389.839 210.823L387.76 209.831L393.236 198.35L395.229 199.301L394.402 201.034C395.805 200.267 397.598 200.298 399.418 201.166C399.62 201.263 399.815 201.365 400 201.475V140.199C399.409 140.107 398.779 139.907 398.118 139.592C395.519 138.352 394.534 136.181 395.484 134.188C396.205 132.677 397.623 131.767 400 132.392V129.31C399.724 129.335 399.458 129.382 399.207 129.449L399.085 127.476C399.38 127.407 399.686 127.36 400 127.334V0H289.865L285.023 10.1499ZM400 138.451V134.159C398.661 133.804 397.959 134.296 397.584 135.083C397.036 136.231 397.648 137.4 399.229 138.154C399.487 138.277 399.744 138.376 400 138.451ZM106.728 300H106.295C106.487 299.925 106.673 299.837 106.854 299.736L106.728 300ZM125.233 300H127.62C126.791 299.841 125.958 299.838 125.233 300ZM295.902 3.37323C297.305 2.60644 299.098 2.63751 300.918 3.50542C303.712 4.83829 304.919 7.38151 303.307 10.7608L300.156 17.3677L298.076 16.3758L301.114 10.0072C302.189 7.75432 301.589 6.11228 299.618 5.17205C297.408 4.11816 295.348 4.75761 294.16 7.24875L291.339 13.1625L289.26 12.1706L294.736 0.689702L296.729 1.64027L295.902 3.37323ZM320.621 24.2572C318.946 25.4262 316.822 25.4765 314.764 24.4949C311.233 22.8107 309.866 19.154 311.498 15.7314C313.131 12.3088 316.823 11.0916 320.354 12.7757C322.411 13.7573 323.72 15.4184 323.865 17.4553L321.798 17.7192C321.599 16.2414 320.72 15.1843 319.464 14.585C317.211 13.5105 314.767 14.2859 313.6 16.7337C312.411 19.2248 313.357 21.5904 315.61 22.665C316.866 23.2642 318.241 23.2816 319.515 22.5065L320.621 24.2572ZM333.464 26.4476L336.295 20.5122L338.374 21.5041L332.898 32.985L330.927 32.0448L331.754 30.3118C330.34 31.1003 328.59 31.0899 326.966 30.3149C323.998 28.8994 322.802 26.3345 324.414 22.9553L327.565 16.3483L329.644 17.3402L326.607 23.7089C325.532 25.9617 326.121 27.6254 328.093 28.5657C330.259 29.5989 332.286 28.9171 333.464 26.4476ZM344.326 24.343L343.406 26.2709C344.784 25.2792 346.544 25.2679 348.559 26.2288L347.598 28.2434C347.435 28.1391 347.283 28.0667 347.131 27.9944C344.9 26.9302 342.863 27.6336 341.664 30.1464L338.937 35.8652L336.857 34.8733L342.333 23.3924L344.326 24.343ZM349.835 28.6456C351.481 28.2608 353.44 28.5571 355.281 29.4354C358.422 30.9336 359.475 33.2971 357.977 36.4381L354.671 43.37L352.699 42.4298L353.423 40.9134C352.234 41.6226 350.666 41.6195 348.868 40.7619C346.269 39.522 345.284 37.3504 346.234 35.3575C347.113 33.5162 349.027 32.5682 352.45 34.2007L355.742 35.7712L355.939 35.3596C356.776 33.605 356.243 32.1012 354.185 31.1197C352.821 30.4687 351.207 30.284 349.957 30.6186L349.835 28.6456ZM348.334 36.2524C347.786 37.4005 348.398 38.57 349.979 39.3242C351.539 40.0682 353.115 39.9423 354.265 38.8688L355.03 37.2659L351.824 35.7367C349.766 34.7551 348.799 35.2776 348.334 36.2524ZM365.162 36.4082C366.564 35.6414 368.358 35.6725 370.177 36.5404C372.972 37.8733 374.178 40.4165 372.566 43.7958L369.415 50.4027L367.336 49.4108L370.373 43.0422C371.448 40.7893 370.848 39.1473 368.877 38.207C366.668 37.1532 364.608 37.7926 363.419 40.2837L360.599 46.1975L358.519 45.2056L363.995 33.7247L365.988 34.6753L365.162 36.4082ZM386.728 46.695L389.745 40.3697L391.825 41.3616L384.158 57.4348L382.165 56.4842L383.033 54.6646C381.482 55.5201 379.699 55.4673 378.009 54.6614C374.652 53.0599 373.33 49.5312 375.004 46.0219C376.678 42.5127 380.241 41.3407 383.599 42.9422C385.224 43.7172 386.364 45.0056 386.728 46.695ZM377.105 47.0242C375.937 49.472 376.841 51.8706 379.05 52.9244C381.238 53.968 383.671 53.1606 384.838 50.7128C386.006 48.265 385.092 45.8881 382.904 44.8445C380.695 43.7906 378.273 44.5764 377.105 47.0242ZM119.849 0H112.168C112.579 0.818047 113.275 1.49538 114.201 1.9368C116.305 2.94027 118.635 2.23226 119.849 0ZM0 239.021V247.761C1.18319 247.457 2.2348 246.6 2.88911 245.228C4.05665 242.781 3.14293 240.404 0.955066 239.36C0.639623 239.21 0.319844 239.097 0 239.021ZM14.0787 19.6286L17.0958 13.3033L19.1753 14.2952L11.5088 30.3684L9.51586 29.4178L10.3838 27.5982C8.83237 28.4537 7.04938 28.4009 5.35974 27.595C2.00212 25.9935 0.680525 22.4648 2.35435 18.9555C4.02818 15.4463 7.59188 14.2743 10.9495 15.8758C12.5741 16.6508 13.7145 17.9392 14.0787 19.6286ZM4.45557 19.9578C3.28803 22.4056 4.19141 24.8042 6.40094 25.8581C8.58881 26.9016 11.0214 26.0942 12.1889 23.6464C13.3565 21.1986 12.4427 18.8217 10.2549 17.7781C8.04535 16.7242 5.62312 17.51 4.45557 19.9578ZM10.0642 98.2116L12.8953 92.2762L14.9748 93.2681L9.49874 104.749L7.5275 103.809L8.35408 102.076C6.94098 102.864 5.19099 102.854 3.56634 102.079C0.598634 100.663 -0.597692 98.0985 1.01414 94.7192L4.16548 88.1123L6.24504 89.1042L3.20735 95.4728C2.1328 97.7257 2.72195 99.3894 4.69319 100.33C6.8594 101.363 8.88637 100.681 10.0642 98.2116ZM20.9267 96.107L20.0071 98.0349C21.3842 97.0431 23.1445 97.0319 25.1591 97.9928L24.1982 100.007C24.0352 99.903 23.8836 99.8307 23.732 99.7584C21.5008 98.6942 19.4635 99.3976 18.2649 101.91L15.5372 107.629L13.4577 106.637L18.9338 95.1564L20.9267 96.107ZM26.4352 100.41C28.0812 100.025 30.0405 100.321 31.8818 101.199C35.0228 102.698 36.0758 105.061 34.5776 108.202L31.2713 115.134L29.3001 114.194L30.0233 112.677C28.8342 113.387 27.2668 113.383 25.4689 112.526C22.8694 111.286 21.8844 109.114 22.8349 107.121C23.7132 105.28 25.6279 104.332 29.0505 105.965L32.3431 107.535L32.5394 107.124C33.3763 105.369 32.8438 103.865 30.7859 102.884C29.4212 102.233 27.8075 102.048 26.5578 102.383L26.4352 100.41ZM24.9342 108.016C24.3866 109.164 24.9987 110.334 26.58 111.088C28.1397 111.832 29.7154 111.706 30.8656 110.633L31.6302 109.03L28.4242 107.501C26.3663 106.519 25.3991 107.042 24.9342 108.016ZM41.7621 108.172C43.1649 107.405 44.9582 107.436 46.7778 108.304C49.5722 109.637 50.7789 112.18 49.1671 115.56L46.0157 122.167L43.9362 121.175L46.9738 114.806C48.0484 112.553 47.4489 110.911 45.4777 109.971C43.2681 108.917 41.2082 109.557 40.02 112.048L37.1993 117.961L35.1197 116.97L40.5958 105.489L42.5887 106.439L41.7621 108.172ZM63.3287 118.459L66.3457 112.134L68.4253 113.126L60.7588 129.199L58.7659 128.248L59.6338 126.429C58.0824 127.284 56.2994 127.231 54.6097 126.425C51.2521 124.824 49.9305 121.295 51.6044 117.786C53.2782 114.277 56.8419 113.105 60.1995 114.706C61.8241 115.481 62.9645 116.77 63.3287 118.459ZM53.7056 118.788C52.538 121.236 53.4414 123.635 55.6509 124.688C57.8388 125.732 60.2714 124.925 61.4389 122.477C62.6065 120.029 61.6927 117.652 59.5049 116.608C57.2953 115.555 54.8731 116.34 53.7056 118.788ZM69.4237 57.9925L67.2575 56.9593L74.4901 41.7959L76.6563 42.8291L69.4237 57.9925ZM80.3026 51.2159C81.7054 50.4491 83.4987 50.4801 85.3183 51.348C88.1127 52.6809 89.3194 55.2241 87.7076 58.6034L84.5562 65.2103L82.4766 64.2184L85.5143 57.8498C86.5889 55.5969 85.9894 53.9549 84.0182 53.0147C81.8086 51.9608 79.7487 52.6002 78.5605 55.0914L75.7398 61.0051L73.6602 60.0132L79.1363 48.5323L81.1292 49.4829L80.3026 51.2159ZM105.021 72.0998C103.347 73.2688 101.222 73.3191 99.1642 72.3375C95.6332 70.6534 94.2663 66.9967 95.8988 63.5741C97.5313 60.1515 101.223 58.9342 104.754 60.6183C106.812 61.5999 108.12 63.261 108.265 65.2979L106.198 65.5618C105.999 64.0841 105.121 63.0269 103.864 62.4276C101.611 61.3531 99.1676 62.1285 98 64.5763C96.8118 67.0674 97.7576 69.433 100.01 70.5076C101.267 71.1068 102.641 71.1242 103.915 70.3491L105.021 72.0998ZM117.864 74.2903L120.695 68.3549L122.775 69.3467L117.299 80.8276L115.327 79.8874L116.154 78.1544C114.741 78.9429 112.991 78.9325 111.366 78.1576C108.398 76.742 107.202 74.1772 108.814 70.7979L111.965 64.1909L114.045 65.1828L111.007 71.5515C109.933 73.8043 110.522 75.468 112.493 76.4083C114.659 77.4415 116.686 76.7597 117.864 74.2903ZM128.726 72.1856L127.807 74.1135C129.184 73.1218 130.944 73.1105 132.959 74.0714L131.998 76.086C131.835 75.9817 131.684 75.9094 131.532 75.8371L131.532 75.837C129.301 74.7728 127.263 75.4763 126.065 77.9891L123.337 83.7078L121.257 82.7159L126.734 71.2351L128.726 72.1856ZM134.235 76.4882C135.881 76.1034 137.84 76.3997 139.682 77.278C142.823 78.7762 143.876 81.1398 142.377 84.2808L139.071 91.2126L137.1 90.2724L137.823 88.756C136.634 89.4652 135.067 89.4621 133.269 88.6045C130.669 87.3647 129.684 85.193 130.635 83.2001C131.513 81.3589 133.428 80.4108 136.85 82.0433L140.143 83.6138L140.339 83.2022C141.176 81.4476 140.644 79.9439 138.586 78.9623C137.221 78.3114 135.607 78.1267 134.358 78.4612L134.235 76.4882ZM132.734 84.095C132.186 85.2431 132.799 86.4126 134.38 87.1669C135.94 87.9108 137.515 87.7849 138.665 86.7115L139.43 85.1085L136.224 83.5793C134.166 82.5977 133.199 83.1203 132.734 84.095ZM149.562 84.2508C150.965 83.4841 152.758 83.5151 154.578 84.383C157.372 85.7159 158.579 88.2591 156.967 91.6384L153.816 98.2453L151.736 97.2534L154.774 90.8848C155.848 88.6319 155.249 86.9899 153.277 86.0497C151.068 84.9958 149.008 85.6352 147.82 88.1264L144.999 94.0401L142.92 93.0482L148.396 81.5673L150.389 82.5179L149.562 84.2508ZM171.129 94.5376L174.146 88.2123L176.225 89.2042L168.559 105.277L166.566 104.327L167.434 102.507C165.882 103.363 164.099 103.31 162.41 102.504C159.052 100.903 157.73 97.3738 159.404 93.8646C161.078 90.3553 164.642 89.1833 167.999 90.7848C169.624 91.5598 170.764 92.8482 171.129 94.5376ZM161.505 94.8668C160.338 97.3146 161.241 99.7132 163.451 100.767C165.639 101.811 168.071 101.003 169.239 98.5554C170.406 96.1076 169.493 93.7307 167.305 92.6871C165.095 91.6332 162.673 92.419 161.505 94.8668ZM8.70774 179.711L10.8739 180.744L18.1065 165.581L15.9403 164.547L8.70774 179.711ZM26.7685 174.1C24.9489 173.232 23.1556 173.201 21.7528 173.967L22.5794 172.234L20.5865 171.284L15.1104 182.765L17.19 183.757L20.0107 177.843C21.1989 175.352 23.2588 174.712 25.4684 175.766C27.4396 176.706 28.0391 178.349 26.9645 180.601L23.9268 186.97L26.0064 187.962L29.1577 181.355C30.7696 177.976 29.5629 175.432 26.7685 174.1ZM40.6144 195.089C42.6723 196.071 44.7968 196.02 46.4712 194.851L45.3652 193.101C44.0914 193.876 42.717 193.858 41.4606 193.259C39.2078 192.185 38.262 189.819 39.4502 187.328C40.6178 184.88 43.0617 184.105 45.3145 185.179C46.5709 185.778 47.4494 186.836 47.6486 188.313L49.7156 188.049C49.5704 186.013 48.262 184.351 46.2041 183.37C42.6732 181.686 38.9815 182.903 37.349 186.326C35.7165 189.748 37.0834 193.405 40.6144 195.089ZM62.1453 191.106L59.3143 197.042C58.1364 199.511 56.1094 200.193 53.9432 199.16C51.972 198.22 51.3828 196.556 52.4574 194.303L55.4951 187.934L53.4155 186.943L50.2642 193.549C48.6523 196.929 49.8487 199.494 52.8164 200.909C54.441 201.684 56.191 201.694 57.6041 200.906L56.7775 202.639L58.7488 203.579L64.2249 192.098L62.1453 191.106ZM69.2571 196.865L70.1767 194.937L68.1838 193.987L62.7077 205.467L64.7872 206.459L67.5149 200.741C68.7135 198.228 70.7508 197.524 72.982 198.589C73.1336 198.661 73.2852 198.733 73.4482 198.838L74.4091 196.823C72.3945 195.862 70.6342 195.873 69.2571 196.865ZM81.1318 200.03C79.2905 199.151 77.3312 198.855 75.6852 199.24L75.8078 201.213C77.0575 200.878 78.6712 201.063 80.0359 201.714C82.0938 202.695 82.6263 204.199 81.7894 205.954L81.5931 206.365L78.3005 204.795C74.8779 203.162 72.9632 204.11 72.085 205.952C71.1344 207.945 72.1194 210.116 74.7189 211.356C76.5168 212.214 78.0842 212.217 79.2733 211.508L78.5501 213.024L80.5213 213.964L83.8276 207.032C85.3258 203.891 84.2728 201.528 81.1318 200.03ZM75.8301 209.918C74.2487 209.164 73.6366 207.995 74.1842 206.847C74.6491 205.872 75.6163 205.349 77.6742 206.331L80.8802 207.86L80.1156 209.463C78.9654 210.536 77.3897 210.662 75.8301 209.918ZM96.0278 207.135C94.2082 206.267 92.4149 206.236 91.0121 207.002L91.8387 205.269L89.8458 204.319L84.3697 215.8L86.4493 216.792L89.27 210.878C90.4582 208.387 92.5182 207.747 94.7277 208.801C96.6989 209.741 97.2984 211.384 96.2239 213.636L93.1862 220.005L95.2657 220.997L98.4171 214.39C100.029 211.011 98.8222 208.467 96.0278 207.135ZM115.596 210.964L112.579 217.289C112.215 215.6 111.074 214.311 109.45 213.536C106.092 211.935 102.528 213.107 100.854 216.616C99.1805 220.125 100.502 223.654 103.86 225.256C105.549 226.062 107.332 226.114 108.884 225.259L108.016 227.078L110.009 228.029L117.675 211.956L115.596 210.964ZM104.901 223.519C102.691 222.465 101.788 220.066 102.956 217.618C104.123 215.171 106.545 214.385 108.755 215.439C110.943 216.482 111.856 218.859 110.689 221.307C109.521 223.755 107.089 224.562 104.901 223.519ZM175.057 33.038L177.224 34.0713L184.456 18.9078L182.29 17.8746L175.057 33.038ZM193.118 27.4268C191.299 26.5589 189.505 26.5278 188.102 27.2946L188.929 25.5616L186.936 24.6111L181.46 36.0919L183.54 37.0838L186.36 31.1701C187.548 28.679 189.608 28.0395 191.818 29.0934C193.789 30.0336 194.389 31.6757 193.314 33.9285L190.276 40.2972L192.356 41.2891L195.507 34.6822C197.119 31.3029 195.913 28.7596 193.118 27.4268ZM206.964 48.4163C209.022 49.3978 211.146 49.3476 212.821 48.1786L211.715 46.4278C210.441 47.203 209.067 47.1856 207.81 46.5863C205.557 45.5118 204.612 43.1462 205.8 40.655C206.967 38.2072 209.411 37.4318 211.664 38.5064C212.921 39.1056 213.799 40.1628 213.998 41.6405L216.065 41.3767C215.92 39.3397 214.612 37.6786 212.554 36.6971C209.023 35.0129 205.331 36.2302 203.699 39.6528C202.066 43.0754 203.433 46.7321 206.964 48.4163ZM228.495 44.4336L225.664 50.369C224.486 52.8385 222.459 53.5203 220.293 52.487C218.322 51.5468 217.732 49.8831 218.807 47.6302L221.845 41.2616L219.765 40.2697L216.614 46.8766C215.002 50.2559 216.198 52.8208 219.166 54.2363C220.791 55.0112 222.541 55.0216 223.954 54.2332L223.127 55.9661L225.098 56.9064L230.574 45.4255L228.495 44.4336ZM235.607 50.1923L236.526 48.2644L234.533 47.3138L229.057 58.7947L231.137 59.7866L233.865 54.0678C235.063 51.555 237.1 50.8516 239.332 51.9158C239.483 51.9881 239.635 52.0604 239.798 52.1648L240.759 50.1502C238.744 49.1893 236.984 49.2005 235.607 50.1923ZM247.481 53.3567C245.64 52.4785 243.681 52.1821 242.035 52.567L242.157 54.5399C243.407 54.2054 245.021 54.3901 246.386 55.041C248.443 56.0226 248.976 57.5263 248.139 59.281L247.943 59.6925L244.65 58.122C241.227 56.4895 239.313 57.4376 238.435 59.2789C237.484 61.2718 238.469 63.4434 241.068 64.6833C242.866 65.5409 244.434 65.5439 245.623 64.8348L244.9 66.3511L246.871 67.2914L250.177 60.3595C251.675 57.2185 250.622 54.8549 247.481 53.3567ZM242.18 63.2456C240.598 62.4913 239.986 61.3219 240.534 60.1738C240.999 59.199 241.966 58.6765 244.024 59.658L247.23 61.1872L246.465 62.7902C245.315 63.8636 243.739 63.9895 242.18 63.2456ZM262.377 60.4618C260.558 59.5939 258.765 59.5628 257.362 60.3296L258.188 58.5966L256.195 57.6461L250.719 69.1269L252.799 70.1188L255.62 64.2051C256.808 61.714 258.868 61.0745 261.077 62.1284C263.049 63.0686 263.648 64.7107 262.573 66.9635L259.536 73.3322L261.615 74.3241L264.767 67.7172C266.379 64.3379 265.172 61.7946 262.377 60.4618ZM281.945 64.291L278.928 70.6163C278.564 68.927 277.424 67.6385 275.799 66.8636C272.441 65.2621 268.878 66.434 267.204 69.9433C265.53 73.4525 266.852 76.9813 270.209 78.5828C271.899 79.3887 273.682 79.4414 275.233 78.586L274.365 80.4056L276.358 81.3562L284.025 65.2829L281.945 64.291ZM271.251 76.8458C269.041 75.7919 268.138 73.3933 269.305 70.9455C270.473 68.4977 272.895 67.712 275.104 68.7659C277.292 69.8094 278.206 72.1863 277.039 74.6341C275.871 77.082 273.438 77.8894 271.251 76.8458ZM118.674 156.823L116.508 155.79L123.74 140.626L125.906 141.659L118.674 156.823ZM129.553 150.046C130.955 149.279 132.749 149.31 134.568 150.178C137.363 151.511 138.569 154.054 136.958 157.434L133.806 164.041L131.727 163.049L134.764 156.68C135.839 154.427 135.239 152.785 133.268 151.845C131.059 150.791 128.999 151.43 127.81 153.922L124.99 159.835L122.91 158.843L128.386 147.363L130.379 148.313L129.553 150.046ZM154.271 170.93C152.597 172.099 150.472 172.149 148.414 171.168C144.883 169.484 143.516 165.827 145.149 162.404C146.781 158.982 150.473 157.764 154.004 159.449C156.062 160.43 157.37 162.091 157.515 164.128L155.448 164.392C155.249 162.914 154.371 161.857 153.114 161.258C150.861 160.183 148.418 160.959 147.25 163.407C146.062 165.898 147.008 168.263 149.26 169.338C150.517 169.937 151.891 169.954 153.165 169.179L154.271 170.93ZM167.114 173.12L169.945 167.185L172.025 168.177L166.549 179.658L164.577 178.718L165.404 176.985C163.991 177.773 162.241 177.763 160.616 176.988C157.648 175.572 156.452 173.007 158.064 169.628L161.215 163.021L163.295 164.013L160.257 170.382C159.183 172.635 159.772 174.298 161.743 175.239C163.909 176.272 165.936 175.59 167.114 173.12ZM177.976 171.016L177.057 172.944C178.434 171.952 180.194 171.941 182.209 172.902L181.248 174.916C181.085 174.812 180.933 174.74 180.782 174.667L180.782 174.667C178.551 173.603 176.513 174.306 175.315 176.819L172.587 182.538L170.507 181.546L175.984 170.065L177.976 171.016ZM183.485 175.318C185.131 174.934 187.09 175.23 188.932 176.108C192.073 177.606 193.126 179.97 191.627 183.111L188.321 190.043L186.35 189.103L187.073 187.586C185.884 188.295 184.317 188.292 182.519 187.435C179.919 186.195 178.934 184.023 179.885 182.03C180.763 180.189 182.678 179.241 186.1 180.874L189.393 182.444L189.589 182.032C190.426 180.278 189.894 178.774 187.836 177.793C186.471 177.142 184.857 176.957 183.608 177.291L183.485 175.318ZM181.984 182.925C181.436 184.073 182.049 185.243 183.63 185.997C185.19 186.741 186.765 186.615 187.915 185.542L188.68 183.939L185.474 182.41C183.416 181.428 182.449 181.95 181.984 182.925ZM198.812 183.081C200.215 182.314 202.008 182.345 203.828 183.213C206.622 184.546 207.829 187.089 206.217 190.469L203.066 197.076L200.986 196.084L204.024 189.715C205.098 187.462 204.499 185.82 202.527 184.88C200.318 183.826 198.258 184.465 197.07 186.957L194.249 192.87L192.169 191.878L197.646 180.398L199.639 181.348L198.812 183.081ZM220.379 193.368L223.396 187.043L225.475 188.034L217.809 204.108L215.816 203.157L216.684 201.337C215.132 202.193 213.349 202.14 211.66 201.334C208.302 199.733 206.98 196.204 208.654 192.695C210.328 189.186 213.892 188.014 217.249 189.615C218.874 190.39 220.014 191.678 220.379 193.368ZM210.755 193.697C209.588 196.145 210.491 198.543 212.701 199.597C214.889 200.641 217.321 199.833 218.489 197.386C219.656 194.938 218.743 192.561 216.555 191.517C214.345 190.463 211.923 191.249 210.755 193.697ZM57.9577 278.541L60.1239 279.574L67.3565 264.411L65.1903 263.378L57.9577 278.541ZM76.0185 272.93C74.1989 272.062 72.4056 272.031 71.0028 272.798L71.8294 271.065L69.8365 270.114L64.3604 281.595L66.44 282.587L69.2607 276.673C70.4489 274.182 72.5088 273.543 74.7184 274.596C76.6896 275.537 77.2891 277.179 76.2145 279.432L73.1768 285.8L75.2564 286.792L78.4078 280.185C80.0196 276.806 78.8129 274.263 76.0185 272.93ZM89.8644 293.919C91.9223 294.901 94.0468 294.851 95.7212 293.682L94.6152 291.931C93.3414 292.706 91.967 292.689 90.7106 292.089C88.4578 291.015 87.512 288.649 88.7002 286.158C89.8678 283.71 92.3117 282.935 94.5645 284.009C95.8209 284.609 96.6994 285.666 96.8986 287.144L98.9656 286.88C98.8204 284.843 97.512 283.182 95.4541 282.2C91.9232 280.516 88.2315 281.733 86.599 285.156C84.9665 288.578 86.3335 292.235 89.8644 293.919ZM226.474 132.901L224.307 131.868L231.54 116.705L233.706 117.738L226.474 132.901ZM237.352 126.125C238.755 125.358 240.548 125.389 242.368 126.257C245.163 127.59 246.369 130.133 244.757 133.512L241.606 140.119L239.526 139.127L242.564 132.759C243.639 130.506 243.039 128.864 241.068 127.924C238.858 126.87 236.798 127.509 235.61 130L232.79 135.914L230.71 134.922L236.186 123.441L238.179 124.392L237.352 126.125ZM262.071 147.009C260.396 148.178 258.272 148.228 256.214 147.246C252.683 145.562 251.316 141.906 252.949 138.483C254.581 135.06 258.273 133.843 261.804 135.527C263.862 136.509 265.17 138.17 265.315 140.207L263.248 140.471C263.049 138.993 262.171 137.936 260.914 137.337C258.661 136.262 256.217 137.037 255.05 139.485C253.862 141.976 254.807 144.342 257.06 145.417C258.317 146.016 259.691 146.033 260.965 145.258L262.071 147.009ZM274.914 149.199L277.745 143.264L279.824 144.256L274.348 155.737L272.377 154.796L273.204 153.063C271.791 153.852 270.041 153.841 268.416 153.067C265.448 151.651 264.252 149.086 265.864 145.707L269.015 139.1L271.095 140.092L268.057 146.46C266.982 148.713 267.572 150.377 269.543 151.317C271.709 152.35 273.736 151.669 274.914 149.199ZM285.776 147.095L284.857 149.023C286.234 148.031 287.994 148.02 290.009 148.98L289.048 150.995C288.885 150.891 288.733 150.818 288.582 150.746C286.35 149.682 284.313 150.385 283.115 152.898L280.387 158.617L278.307 157.625L283.783 146.144L285.776 147.095ZM291.285 151.397C292.931 151.012 294.89 151.309 296.731 152.187C299.872 153.685 300.925 156.049 299.427 159.19L296.121 166.122L294.15 165.181L294.873 163.665C293.684 164.374 292.116 164.371 290.318 163.514C287.719 162.274 286.734 160.102 287.685 158.109C288.563 156.268 290.477 155.32 293.9 156.952L297.193 158.523L297.389 158.111C298.226 156.357 297.693 154.853 295.636 153.871C294.271 153.22 292.657 153.036 291.407 153.37L291.285 151.397ZM289.784 159.004C289.236 160.152 289.848 161.322 291.43 162.076C292.989 162.82 294.565 162.694 295.715 161.62L296.48 160.017L293.274 158.488C291.216 157.507 290.249 158.029 289.784 159.004ZM306.612 159.16C308.014 158.393 309.808 158.424 311.627 159.292C314.422 160.625 315.629 163.168 314.017 166.547L310.865 173.154L308.786 172.162L311.823 165.794C312.898 163.541 312.299 161.899 310.327 160.959C308.118 159.905 306.058 160.544 304.87 163.035L302.049 168.949L299.969 167.957L305.445 156.476L307.438 157.427L306.612 159.16ZM328.178 169.447L331.195 163.121L333.275 164.113L325.608 180.186L323.615 179.236L324.483 177.416C322.932 178.272 321.149 178.219 319.459 177.413C316.102 175.811 314.78 172.283 316.454 168.774C318.128 165.264 321.691 164.092 325.049 165.694C326.674 166.469 327.814 167.757 328.178 169.447ZM318.555 169.776C317.388 172.224 318.291 174.622 320.501 175.676C322.688 176.72 325.121 175.912 326.289 173.464C327.456 171.017 326.542 168.64 324.354 167.596C322.145 166.542 319.723 167.328 318.555 169.776ZM165.758 254.62L167.924 255.653L175.156 240.49L172.99 239.456L165.758 254.62ZM183.818 249.009C181.999 248.141 180.205 248.11 178.803 248.876L179.629 247.143L177.636 246.193L172.16 257.674L174.24 258.666L177.06 252.752C178.249 250.261 180.309 249.621 182.518 250.675C184.489 251.615 185.089 253.257 184.014 255.51L180.977 261.879L183.056 262.871L186.208 256.264C187.819 252.885 186.613 250.341 183.818 249.009ZM197.664 269.998C199.722 270.98 201.847 270.929 203.521 269.76L202.415 268.01C201.141 268.785 199.767 268.767 198.51 268.168C196.258 267.094 195.312 264.728 196.5 262.237C197.668 259.789 200.111 259.014 202.364 260.088C203.621 260.687 204.499 261.745 204.698 263.222L206.765 262.958C206.62 260.921 205.312 259.26 203.254 258.279C199.723 256.595 196.031 257.812 194.399 261.235C192.766 264.657 194.133 268.314 197.664 269.998ZM219.195 266.015L216.364 271.951C215.186 274.42 213.159 275.102 210.993 274.069C209.022 273.129 208.433 271.465 209.507 269.212L212.545 262.843L210.465 261.851L207.314 268.458C205.702 271.838 206.898 274.403 209.866 275.818C211.491 276.593 213.241 276.603 214.654 275.815L213.827 277.548L215.799 278.488L221.275 267.007L219.195 266.015ZM226.307 271.774L227.226 269.846L225.234 268.896L219.757 280.376L221.837 281.368L224.565 275.65C225.763 273.137 227.801 272.433 230.032 273.498C230.183 273.57 230.335 273.642 230.498 273.747L231.459 271.732C229.444 270.771 227.684 270.782 226.307 271.774ZM238.182 274.939C236.34 274.06 234.381 273.764 232.735 274.149L232.858 276.122C234.107 275.787 235.721 275.972 237.086 276.623C239.144 277.604 239.676 279.108 238.839 280.863L238.643 281.274L235.35 279.704C231.928 278.071 230.013 279.019 229.135 280.861C228.184 282.854 229.169 285.025 231.769 286.265C233.567 287.123 235.134 287.126 236.323 286.417L235.6 287.933L237.571 288.873L240.877 281.941C242.376 278.8 241.323 276.437 238.182 274.939ZM232.88 284.827C231.299 284.073 230.686 282.904 231.234 281.756C231.699 280.781 232.666 280.258 234.724 281.24L237.93 282.769L237.165 284.372C236.015 285.445 234.44 285.571 232.88 284.827ZM253.078 282.044C251.258 281.176 249.465 281.145 248.062 281.911L248.889 280.178L246.896 279.228L241.42 290.709L243.499 291.701L246.32 285.787C247.508 283.296 249.568 282.656 251.777 283.71C253.749 284.65 254.348 286.292 253.274 288.545L250.236 294.914L252.316 295.906L255.467 289.299C257.079 285.92 255.872 283.376 253.078 282.044ZM261.951 298.428C259.741 297.374 258.838 294.975 260.005 292.527C261.173 290.079 263.595 289.294 265.805 290.348C267.993 291.391 268.906 293.768 267.739 296.216C266.571 298.664 264.139 299.471 261.951 298.428ZM332.107 107.947L334.273 108.98L341.506 93.8167L339.34 92.7835L332.107 107.947ZM350.168 102.336C348.348 101.468 346.555 101.437 345.152 102.203L345.979 100.47L343.986 99.5199L338.51 111.001L340.589 111.993L343.41 106.079C344.598 103.588 346.658 102.948 348.868 104.002C350.839 104.943 351.438 106.585 350.364 108.837L347.326 115.206L349.406 116.198L352.557 109.591C354.169 106.212 352.962 103.669 350.168 102.336ZM364.014 123.325C366.072 124.307 368.196 124.256 369.871 123.087L368.765 121.337C367.491 122.112 366.116 122.094 364.86 121.495C362.607 120.421 361.661 118.055 362.85 115.564C364.017 113.116 366.461 112.341 368.714 113.415C369.97 114.015 370.849 115.072 371.048 116.549L373.115 116.286C372.97 114.249 371.661 112.588 369.603 111.606C366.073 109.922 362.381 111.139 360.748 114.562C359.116 117.984 360.483 121.641 364.014 123.325ZM385.545 119.342L382.714 125.278C381.536 127.747 379.509 128.429 377.343 127.396C375.371 126.456 374.782 124.792 375.857 122.539L378.894 116.17L376.815 115.179L373.664 121.785C372.052 125.165 373.248 127.73 376.216 129.145C377.84 129.92 379.59 129.93 381.003 129.142L380.177 130.875L382.148 131.815L387.624 120.334L385.545 119.342ZM392.656 125.101L393.576 123.173L391.583 122.223L386.107 133.704L388.187 134.695L390.914 128.977C392.113 126.464 394.15 125.76 396.381 126.825L396.382 126.825C396.533 126.897 396.685 126.969 396.848 127.074L397.808 125.059C395.794 124.098 394.034 124.109 392.656 125.101ZM275.724 231.732L273.557 230.699L280.79 215.535L282.956 216.568L275.724 231.732ZM286.602 224.955C288.005 224.188 289.798 224.219 291.618 225.087C294.413 226.42 295.619 228.963 294.007 232.343L290.856 238.95L288.776 237.958L291.814 231.589C292.889 229.336 292.289 227.694 290.318 226.754C288.108 225.7 286.048 226.339 284.86 228.831L282.04 234.744L279.96 233.752L285.436 222.272L287.429 223.222L286.602 224.955ZM311.321 245.839C309.646 247.008 307.522 247.058 305.464 246.077C301.933 244.393 300.566 240.736 302.199 237.313C303.831 233.891 307.523 232.673 311.054 234.358C313.112 235.339 314.42 237 314.565 239.037L312.498 239.301C312.299 237.823 311.421 236.766 310.164 236.167C307.911 235.092 305.467 235.868 304.3 238.316C303.112 240.807 304.057 243.172 306.31 244.247C307.567 244.846 308.941 244.863 310.215 244.088L311.321 245.839ZM324.164 248.029L326.995 242.094L329.074 243.086L323.598 254.567L321.627 253.627L322.454 251.894C321.041 252.682 319.291 252.672 317.666 251.897C314.698 250.481 313.502 247.916 315.114 244.537L318.265 237.93L320.345 238.922L317.307 245.291C316.232 247.544 316.822 249.207 318.793 250.148C320.959 251.181 322.986 250.499 324.164 248.029ZM335.026 245.925L334.107 247.853C335.484 246.861 337.244 246.85 339.259 247.811L338.298 249.825C338.135 249.721 337.983 249.649 337.832 249.576C335.6 248.512 333.563 249.215 332.365 251.728L329.637 257.447L327.557 256.455L333.033 244.974L335.026 245.925ZM340.535 250.227C342.181 249.843 344.14 250.139 345.981 251.017C349.122 252.515 350.175 254.879 348.677 258.02L345.371 264.952L343.4 264.012L344.123 262.495C342.934 263.204 341.366 263.201 339.568 262.344C336.969 261.104 335.984 258.932 336.935 256.939C337.813 255.098 339.727 254.15 343.15 255.783L346.443 257.353L346.639 256.941C347.476 255.187 346.943 253.683 344.885 252.702C343.521 252.051 341.907 251.866 340.657 252.2L340.535 250.227ZM339.034 257.834C338.486 258.982 339.098 260.152 340.68 260.906C342.239 261.65 343.815 261.524 344.965 260.451L345.73 258.848L342.524 257.319C340.466 256.337 339.499 256.859 339.034 257.834ZM355.862 257.99C357.264 257.223 359.058 257.254 360.877 258.122C363.672 259.455 364.878 261.998 363.267 265.378L360.115 271.985L358.036 270.993L361.073 264.624C362.148 262.371 361.548 260.729 359.577 259.789C357.368 258.735 355.308 259.374 354.12 261.866L351.299 267.779L349.219 266.787L354.695 255.307L356.688 256.257L355.862 257.99ZM377.428 268.277L380.445 261.952L382.525 262.943L374.858 279.017L372.865 278.066L373.733 276.246C372.182 277.102 370.399 277.049 368.709 276.243C365.352 274.642 364.03 271.113 365.704 267.604C367.378 264.095 370.941 262.923 374.299 264.524C375.924 265.299 377.064 266.587 377.428 268.277ZM367.805 268.606C366.638 271.054 367.541 273.452 369.751 274.506C371.938 275.55 374.371 274.742 375.539 272.295C376.706 269.847 375.792 267.47 373.604 266.426C371.395 265.372 368.973 266.158 367.805 268.606ZM381.357 206.777L383.523 207.81L390.756 192.647L388.59 191.614L381.357 206.777Z" fill="#070F17"/>
</svg>
