<svg width="612" height="528" viewBox="0 0 612 528" fill="none" xmlns="http://www.w3.org/2000/svg">
<path d="M334.053 147.042C365.175 147.042 390.405 121.821 390.405 90.7078C390.405 59.5951 365.175 34.3733 334.053 34.3733C302.931 34.3733 277.701 59.5951 277.701 90.7078C277.701 121.821 302.931 147.042 334.053 147.042Z" fill="#A0616A"/>
<path d="M291.993 118.875C291.993 118.875 302.61 198.887 286.277 207.867C269.943 216.848 383.463 217.665 383.463 217.665C383.463 217.665 358.145 148.267 369.579 127.04L291.993 118.875Z" fill="#A0616A"/>
<path d="M466.356 218.069L456.915 261.047L436.953 351.973L436.355 356.952L429.466 414.6L424.883 452.896L421.81 478.621C403.128 488.22 389.587 494.847 389.587 494.847C389.587 494.847 388.422 489.009 386.545 481.54C373.433 485.47 349.171 491.989 328.611 493.292C336.098 501.634 339.539 509.471 334.872 515.255C320.787 532.691 262.639 496.164 242.301 482.543C241.828 485.805 241.648 489.102 241.765 492.395L226.201 480.429L227.741 452.896L230.339 406.311L233.603 347.889C232.574 345.388 231.711 342.821 231.021 340.206C226.254 323.26 220.469 289.422 216.032 261.047C212.461 238.21 209.779 218.912 209.212 214.806C209.135 214.27 209.097 213.994 209.097 213.994L295.253 175.935C301.376 190.131 329.968 194.398 329.968 194.398C353.654 192.766 372.222 180.279 372.222 180.279L466.356 218.069Z" fill="#D0CDE1"/>
<path d="M396.124 478.521C396.124 478.521 392.476 479.77 386.545 481.54C373.433 485.47 349.172 491.989 328.612 493.291C310.91 494.425 295.951 491.698 293.215 480.153C292.043 475.189 293.706 471.106 297.331 467.75C308.151 457.722 336.413 454.129 358.827 452.896C365.157 452.551 371.012 452.39 375.886 452.329C384.162 452.222 389.587 452.39 389.587 452.39L389.717 452.896L396.124 478.521Z" fill="#A0616A"/>
<path d="M287.173 37.4205L276.637 33.2037C276.637 33.2037 298.668 8.95661 329.319 11.0651L320.698 1.57707C320.698 1.57707 341.771 -6.8566 360.928 15.2819C370.999 26.9196 382.65 40.5992 389.914 56.0091H401.198L396.488 66.3755L412.971 76.7419L396.053 74.8799C397.061 80.5567 397.216 86.3521 396.512 92.0746C395.786 97.7988 392.864 103.017 388.363 106.629C388.363 106.629 375.296 79.5892 375.296 75.3723V85.9145C375.296 85.9145 364.759 76.4266 364.759 70.1013L359.012 77.4808L356.139 65.8843L320.698 77.4808L326.445 67.9929L304.415 71.1555L313.036 59.5591C313.036 59.5591 288.131 73.2639 287.173 84.8604C286.216 96.4567 278.926 107.445 278.926 107.445C278.926 107.445 259.396 53.2338 287.173 37.4205Z" fill="#2F2E41"/>
<path d="M527.609 415.649C521.869 421.87 507.646 431.239 490.404 441.382C483.99 445.151 477.162 449.035 470.196 452.896C453.575 462.112 436.172 471.244 421.811 478.621C403.128 488.22 389.588 494.847 389.588 494.847C389.588 494.847 388.423 489.009 386.545 481.54C384.032 471.542 380.246 458.619 376.3 452.896C376.162 452.697 376.024 452.513 375.886 452.329C374.736 450.82 373.579 449.939 372.438 449.939L429.467 414.6L454.111 399.324L436.356 356.952L414.087 303.801L427.528 261.046L441.038 218.069H466.357C466.357 218.069 474.741 236.363 485.461 261.874C487.063 265.689 488.718 269.665 490.404 273.771C512.459 327.397 539.954 402.281 527.609 415.649Z" fill="#D0CDE1"/>
<path d="M334.872 515.255C320.787 532.691 262.639 496.164 242.301 482.543C237.871 479.579 235.235 477.702 235.235 477.702L253.841 452.896L259.734 445.044C259.734 445.044 265.007 447.84 272.8 452.39C273.084 452.559 273.367 452.727 273.658 452.896C280.379 456.841 288.816 461.997 297.33 467.75C309.077 475.695 320.955 484.757 328.611 493.291C336.098 501.634 339.538 509.471 334.872 515.255Z" fill="#A0616A"/>
<path d="M272.8 452.391C270.721 452.383 268.644 452.552 266.593 452.896C248.976 455.922 243.78 471.864 242.301 482.543C241.827 485.805 241.648 489.102 241.765 492.395L226.201 480.429L220.53 476.07C206.882 471.313 194.72 462.863 184.176 452.896C175.028 444.097 166.823 434.369 159.692 423.869C152.59 413.521 146.258 402.664 140.749 391.387C139.212 388.241 138.385 384.794 138.328 381.293C138.271 377.791 138.985 374.32 140.419 371.125L159.692 328.186L187.862 265.429C188.069 263.935 188.296 262.474 188.544 261.047C194.13 229.024 209.097 214.806 209.097 214.806H220.53L228.178 261.047L237.68 318.495L231.021 340.206L215.633 390.346L230.339 406.311L272.8 452.391Z" fill="#D0CDE1"/>
<path d="M285.741 318.541L295.515 329.941C299.146 329.248 302.938 328.435 306.844 327.522L304.037 318.541L310.901 326.547C352.28 316.372 403.569 296.592 403.569 296.592C403.569 296.592 348.197 300.651 306.854 291.621C288.561 287.626 269.741 296.691 262.234 313.839C257.871 323.806 258.556 332.442 274.031 332.442C279.26 332.353 284.474 331.862 289.627 330.975L285.741 318.541Z" fill="#D4049A"/>
<path d="M508.565 505.909V510.559C508.568 511.835 508.332 513.101 507.868 514.29C507.662 514.82 507.414 515.332 507.125 515.822C506.211 517.355 504.915 518.623 503.364 519.504C501.812 520.385 500.058 520.848 498.274 520.847H156.076C154.291 520.848 152.537 520.385 150.986 519.504C149.434 518.623 148.138 517.355 147.225 515.822C146.936 515.332 146.687 514.82 146.482 514.29C146.018 513.101 145.782 511.835 145.784 510.559V505.909C145.784 504.558 146.05 503.22 146.567 501.971C147.084 500.723 147.842 499.589 148.798 498.633C149.753 497.678 150.888 496.92 152.137 496.403C153.386 495.886 154.724 495.62 156.076 495.62H175.801V493.452C175.801 493.396 175.812 493.34 175.833 493.288C175.855 493.236 175.886 493.189 175.926 493.149C175.966 493.109 176.013 493.077 176.066 493.056C176.118 493.034 176.174 493.023 176.23 493.023H186.522C186.578 493.023 186.634 493.034 186.686 493.056C186.738 493.077 186.785 493.109 186.825 493.149C186.865 493.189 186.897 493.236 186.918 493.288C186.94 493.34 186.951 493.396 186.951 493.452V495.62H193.38V493.452C193.38 493.396 193.391 493.34 193.412 493.288C193.434 493.236 193.466 493.189 193.505 493.149C193.545 493.109 193.593 493.077 193.645 493.056C193.697 493.034 193.753 493.023 193.809 493.023H204.101C204.157 493.023 204.213 493.034 204.265 493.056C204.317 493.077 204.365 493.109 204.404 493.149C204.444 493.189 204.476 493.236 204.497 493.288C204.519 493.34 204.53 493.396 204.53 493.452V495.62H210.967V493.452C210.967 493.396 210.978 493.34 210.999 493.288C211.021 493.236 211.053 493.189 211.092 493.149C211.132 493.109 211.18 493.077 211.232 493.056C211.284 493.034 211.34 493.023 211.396 493.023H221.688C221.744 493.023 221.8 493.034 221.852 493.056C221.904 493.077 221.951 493.109 221.991 493.149C222.031 493.189 222.063 493.236 222.084 493.288C222.106 493.34 222.117 493.396 222.117 493.452V495.62H228.546V493.452C228.546 493.396 228.557 493.34 228.579 493.288C228.6 493.236 228.632 493.189 228.672 493.149C228.712 493.109 228.759 493.077 228.811 493.056C228.863 493.034 228.919 493.023 228.975 493.023H239.267C239.323 493.023 239.379 493.034 239.431 493.056C239.483 493.077 239.531 493.109 239.571 493.149C239.61 493.189 239.642 493.236 239.664 493.288C239.685 493.34 239.696 493.396 239.696 493.452V495.62H246.125V493.452C246.125 493.396 246.136 493.34 246.158 493.288C246.179 493.236 246.211 493.189 246.251 493.149C246.291 493.109 246.338 493.077 246.39 493.056C246.442 493.034 246.498 493.023 246.555 493.023H256.846C256.903 493.023 256.958 493.034 257.011 493.056C257.063 493.077 257.11 493.109 257.15 493.149C257.19 493.189 257.221 493.236 257.243 493.288C257.264 493.34 257.275 493.396 257.275 493.452V495.62H263.712V493.452C263.712 493.396 263.723 493.34 263.745 493.288C263.766 493.236 263.798 493.189 263.838 493.149C263.878 493.109 263.925 493.077 263.977 493.056C264.029 493.034 264.085 493.023 264.142 493.023H274.433C274.49 493.023 274.545 493.034 274.597 493.056C274.65 493.077 274.697 493.109 274.737 493.149C274.777 493.189 274.808 493.236 274.83 493.288C274.851 493.34 274.862 493.396 274.862 493.452V495.62H281.292V493.452C281.292 493.396 281.303 493.34 281.324 493.288C281.346 493.236 281.377 493.189 281.417 493.149C281.457 493.109 281.504 493.077 281.556 493.056C281.609 493.034 281.664 493.023 281.721 493.023H362.337C362.394 493.023 362.449 493.034 362.501 493.056C362.554 493.077 362.601 493.109 362.641 493.149C362.681 493.189 362.712 493.236 362.734 493.288C362.755 493.34 362.766 493.396 362.766 493.452V495.62H369.203V493.452C369.203 493.396 369.214 493.34 369.236 493.288C369.257 493.236 369.289 493.189 369.329 493.149C369.369 493.109 369.416 493.077 369.468 493.056C369.52 493.034 369.576 493.023 369.632 493.023H379.924C380.038 493.025 380.146 493.07 380.226 493.15C380.307 493.231 380.352 493.339 380.353 493.452V495.62H386.783V493.452C386.783 493.396 386.794 493.34 386.815 493.288C386.837 493.236 386.868 493.189 386.908 493.149C386.948 493.109 386.995 493.077 387.047 493.056C387.1 493.034 387.155 493.023 387.212 493.023H397.503C397.56 493.023 397.616 493.034 397.668 493.056C397.72 493.077 397.767 493.109 397.807 493.149C397.847 493.189 397.879 493.236 397.9 493.288C397.922 493.34 397.933 493.396 397.933 493.452V495.62H404.362V493.452C404.362 493.396 404.373 493.34 404.394 493.288C404.416 493.236 404.448 493.189 404.487 493.149C404.527 493.109 404.575 493.077 404.627 493.056C404.679 493.034 404.735 493.023 404.791 493.023H415.083C415.139 493.023 415.195 493.034 415.247 493.056C415.299 493.077 415.346 493.109 415.386 493.149C415.426 493.189 415.458 493.236 415.479 493.288C415.501 493.34 415.512 493.396 415.512 493.452V495.62H421.949V493.452C421.949 493.396 421.96 493.34 421.981 493.288C422.003 493.236 422.034 493.189 422.074 493.149C422.114 493.109 422.162 493.077 422.214 493.056C422.266 493.034 422.322 493.023 422.378 493.023H432.67C432.782 493.025 432.89 493.071 432.969 493.151C433.048 493.231 433.092 493.34 433.091 493.452V495.62H439.528V493.452C439.528 493.396 439.539 493.34 439.561 493.288C439.582 493.236 439.614 493.189 439.654 493.149C439.693 493.109 439.741 493.077 439.793 493.056C439.845 493.034 439.901 493.023 439.957 493.023H450.249C450.305 493.023 450.361 493.034 450.413 493.056C450.465 493.077 450.513 493.109 450.553 493.149C450.592 493.189 450.624 493.236 450.646 493.288C450.667 493.34 450.678 493.396 450.678 493.452V495.62H457.107V493.452C457.107 493.396 457.118 493.34 457.14 493.288C457.161 493.236 457.193 493.189 457.233 493.149C457.273 493.109 457.32 493.077 457.372 493.056C457.424 493.034 457.48 493.023 457.537 493.023H467.828C467.885 493.023 467.94 493.034 467.992 493.056C468.045 493.077 468.092 493.109 468.132 493.149C468.172 493.189 468.203 493.236 468.225 493.288C468.246 493.34 468.257 493.396 468.257 493.452V495.62H498.274C499.625 495.62 500.964 495.886 502.213 496.403C503.461 496.92 504.596 497.678 505.552 498.633C506.508 499.589 507.266 500.723 507.783 501.971C508.3 503.22 508.566 504.558 508.565 505.909Z" fill="#3F3D56"/>
<path d="M608.071 514.29H46.3623V515.822H608.071V514.29Z" fill="#3F3D56"/>
<path d="M481.012 310.076H353.464V307.448H295.629V310.076H167.555C165.267 310.076 163.073 310.985 161.455 312.602C159.837 314.22 158.928 316.414 158.928 318.701V493.3C158.928 495.587 159.837 497.781 161.455 499.398C163.073 501.016 165.267 501.925 167.555 501.925H481.012C483.3 501.925 485.494 501.016 487.112 499.398C488.73 497.781 489.639 495.587 489.639 493.3V318.701C489.639 317.568 489.416 316.447 488.982 315.4C488.549 314.354 487.913 313.403 487.112 312.602C486.311 311.801 485.36 311.166 484.313 310.733C483.266 310.299 482.145 310.076 481.012 310.076Z" fill="#3F3D56"/>
<path d="M324.535 390.185C335.115 390.185 343.693 381.61 343.693 371.033C343.693 360.455 335.115 351.881 324.535 351.881C313.954 351.881 305.377 360.455 305.377 371.033C305.377 381.61 313.954 390.185 324.535 390.185Z" stroke="#D0CDE1" stroke-width="2" stroke-miterlimit="10"/>
<path d="M318.404 397.079C328.985 397.079 337.562 388.505 337.562 377.927C337.562 367.35 328.985 358.775 318.404 358.775C307.823 358.775 299.246 367.35 299.246 377.927C299.246 388.505 307.823 397.079 318.404 397.079Z" fill="#D0CDE1"/>
<path d="M83.1033 506.55H61.6465V528H83.1033V506.55Z" fill="#D0CDE1"/>
<path d="M70.0791 489.696V515.743H96.1338V489.696H70.0791ZM94.9997 514.609H71.2056V490.83H94.9997V514.609Z" fill="#3F3D56"/>
<path d="M579.676 506.55H558.219V528H579.676V506.55Z" fill="#D0CDE1"/>
<path d="M566.651 489.696V515.743H592.706V489.696H566.651ZM591.572 514.609H567.778V490.83H591.572V514.609Z" fill="#3F3D56"/>
<path d="M72.4785 176.285C106.057 176.285 133.278 149.073 133.278 115.504C133.278 81.9356 106.057 54.7229 72.4785 54.7229C38.8997 54.7229 11.6787 81.9356 11.6787 115.504C11.6787 149.073 38.8997 176.285 72.4785 176.285Z" fill="#D4049A"/>
<path d="M93.6661 43.2759C88.161 42.576 82.5894 42.576 77.0843 43.2759C64.8199 44.8857 53.2748 49.979 43.819 57.9514C34.3632 65.9238 27.3936 76.4406 23.7372 88.2539C22.0742 93.6376 21.1325 99.2179 20.9367 104.849C20.9091 105.632 20.8906 106.424 20.8906 107.216C20.9077 124.308 27.7071 140.695 39.7966 152.78C51.8861 164.866 68.2781 171.664 85.3752 171.681C86.7478 171.681 88.1204 171.635 89.4746 171.552C92.6534 171.352 95.8128 170.915 98.9262 170.244C113.794 167.048 127.054 158.702 136.364 146.68C145.673 134.659 150.434 119.735 149.805 104.545C149.175 89.3544 143.197 74.8752 132.924 63.6644C122.652 52.4535 108.747 45.2322 93.6661 43.2759H93.6661ZM105.559 166.505H105.55C100.356 168.277 94.9507 169.351 89.4745 169.701C88.1203 169.793 86.7478 169.839 85.3752 169.839C68.7677 169.819 52.8462 163.214 41.1029 151.475C29.3596 139.735 22.7533 123.818 22.733 107.216C22.733 106.424 22.7514 105.632 22.779 104.849C23.4123 88.6691 30.2817 73.3612 41.9493 62.1298C53.6168 50.8985 69.1779 44.6143 85.3752 44.5928C100.216 44.5937 114.574 49.8616 125.893 59.458C137.211 69.0545 144.753 82.3561 147.177 96.9932C149.6 111.63 146.746 126.652 139.125 139.382C131.503 152.112 119.608 161.724 105.559 166.505H105.559Z" fill="#3F3D56"/>
<path d="M86.2965 48.2766H84.4541V61.1696H86.2965V48.2766Z" fill="#3F3D56"/>
<path d="M44.337 64.8883L43.0342 66.1907L52.1537 75.3074L53.4565 74.005L44.337 64.8883Z" fill="#3F3D56"/>
<path d="M26.418 106.295V108.137H39.3149V106.295H26.418Z" fill="#3F3D56"/>
<path d="M43.0351 148.241L44.3379 149.543L53.4574 140.427L52.1546 139.124L43.0351 148.241Z" fill="#3F3D56"/>
<path d="M117.293 74.005L118.596 75.3074L127.715 66.1907L126.412 64.8883L117.293 74.005Z" fill="#3F3D56"/>
<path d="M131.436 106.295V108.137H144.332V106.295H131.436Z" fill="#3F3D56"/>
<path d="M118.596 139.124L117.293 140.427L126.412 149.543L127.715 148.241L118.596 139.124Z" fill="#3F3D56"/>
<path d="M86.2965 153.262H84.4541V166.155H86.2965V153.262Z" fill="#3F3D56"/>
<path d="M88.139 103.532C87.3417 102.934 86.372 102.611 85.3754 102.611C84.3788 102.611 83.409 102.934 82.6118 103.532C82.066 103.946 81.6165 104.474 81.2945 105.079C80.8864 105.858 80.7098 106.737 80.7857 107.613C80.8616 108.489 81.1868 109.325 81.7228 110.022C82.2588 110.719 82.9832 111.249 83.8104 111.547C84.6376 111.846 85.5331 111.901 86.3909 111.708C87.2488 111.514 88.0332 111.078 88.6514 110.453C89.2696 109.828 89.6958 109.038 89.8797 108.179C90.0635 107.319 89.9973 106.424 89.6889 105.601C89.3804 104.777 88.8426 104.06 88.139 103.532H88.139ZM85.3754 109.978C84.6431 109.976 83.9414 109.685 83.4236 109.167C82.9058 108.649 82.6139 107.948 82.6118 107.216C82.6153 106.657 82.7853 106.112 83.1 105.65C83.37 105.259 83.7362 104.945 84.1633 104.737C84.5904 104.529 85.064 104.435 85.5382 104.463C86.0124 104.492 86.4712 104.642 86.8702 104.9C87.2692 105.158 87.595 105.514 87.816 105.934C88.037 106.355 88.1457 106.825 88.1317 107.3C88.1177 107.775 87.9814 108.238 87.736 108.644C87.4906 109.051 87.1444 109.387 86.7309 109.621C86.3173 109.855 85.8504 109.978 85.3754 109.978V109.978Z" fill="#3F3D56"/>
<path d="M93.6657 27.0952H77.084V43.6719H93.6657V27.0952Z" fill="#3F3D56"/>
<path d="M85.3746 29.8579C97.5851 29.8579 107.484 26.3532 107.484 22.03C107.484 17.7068 97.5851 14.2021 85.3746 14.2021C73.1642 14.2021 63.2656 17.7068 63.2656 22.03C63.2656 26.3532 73.1642 29.8579 85.3746 29.8579Z" fill="#3F3D56"/>
<path d="M88.1386 72.2207H82.6113V103.532H88.1386V72.2207Z" fill="#3F3D56"/>
<path d="M173.187 168.875H0V170.717H173.187V168.875Z" fill="#3F3D56"/>
<path d="M115.402 459.46C116.117 483.936 101.812 492.906 83.8583 493.43C83.4413 493.442 83.0262 493.45 82.6129 493.453C81.7803 493.459 80.9558 493.445 80.1394 493.411C63.9025 492.737 51.05 484.121 50.385 461.358C49.6968 437.801 78.9447 407.194 81.1391 404.93L81.143 404.928C81.2264 404.842 81.2691 404.798 81.2691 404.798C81.2691 404.798 114.687 434.986 115.402 459.46Z" fill="#D0CDE1"/>
<path d="M82.5659 489.721L93.9705 472.766L82.5892 491.545L82.613 493.453C81.7804 493.459 80.9559 493.445 80.1395 493.411L80.7052 468.887L80.6897 468.698L80.7106 468.662L80.7647 466.344L68.2754 448.217L80.75 464.61L80.7942 465.1L81.2215 446.571L70.4341 427.777L81.2522 443.316L81.1393 404.93L81.1395 404.802L81.1432 404.928L81.8593 435.181L91.6907 422.892L81.8915 437.788L82.106 454.361L91.153 438.186L82.1393 456.798L82.2587 466.013L95.4154 443.482L82.2987 469.228L82.5659 489.721Z" fill="#3F3D56"/>
<path d="M611.975 459.46C612.69 483.936 598.384 492.906 580.431 493.43C580.014 493.442 579.598 493.45 579.185 493.453C578.353 493.459 577.528 493.445 576.712 493.411C560.475 492.737 547.622 484.121 546.957 461.358C546.269 437.801 575.517 407.194 577.711 404.93L577.715 404.928C577.799 404.842 577.841 404.798 577.841 404.798C577.841 404.798 611.26 434.986 611.975 459.46Z" fill="#D0CDE1"/>
<path d="M579.137 489.721L590.542 472.766L579.161 491.545L579.184 493.453C578.352 493.459 577.527 493.445 576.711 493.411L577.277 468.887L577.261 468.698L577.282 468.662L577.336 466.344L564.847 448.217L577.321 464.61L577.366 465.1L577.793 446.571L567.005 427.777L577.824 443.316L577.711 404.93L577.711 404.802L577.715 404.928L578.431 435.181L588.262 422.892L578.463 437.788L578.677 454.361L587.724 438.186L578.711 456.798L578.83 466.013L591.987 443.482L578.87 469.228L579.137 489.721Z" fill="#3F3D56"/>
</svg>
