<svg width="247" height="45" viewBox="0 0 247 45" fill="none" xmlns="http://www.w3.org/2000/svg">
<path d="M4.104 10.5317H6.768V33.4277H20.88V35.7317H4.104V10.5317ZM40.97 27.0557H25.13C25.274 29.0237 26.03 30.6197 27.398 31.8437C28.766 33.0437 30.494 33.6437 32.582 33.6437C33.758 33.6437 34.838 33.4397 35.822 33.0317C36.806 32.5997 37.658 31.9757 38.378 31.1597L39.818 32.8157C38.978 33.8237 37.922 34.5917 36.65 35.1197C35.402 35.6477 34.022 35.9117 32.51 35.9117C30.566 35.9117 28.838 35.5037 27.326 34.6877C25.838 33.8477 24.674 32.6957 23.834 31.2317C22.994 29.7677 22.574 28.1117 22.574 26.2637C22.574 24.4157 22.97 22.7597 23.762 21.2957C24.578 19.8317 25.682 18.6917 27.074 17.8757C28.49 17.0597 30.074 16.6517 31.826 16.6517C33.578 16.6517 35.15 17.0597 36.542 17.8757C37.934 18.6917 39.026 19.8317 39.818 21.2957C40.61 22.7357 41.006 24.3917 41.006 26.2637L40.97 27.0557ZM31.826 18.8477C30.002 18.8477 28.466 19.4357 27.218 20.6117C25.994 21.7637 25.298 23.2757 25.13 25.1477H38.558C38.39 23.2757 37.682 21.7637 36.434 20.6117C35.21 19.4357 33.674 18.8477 31.826 18.8477ZM52.3052 16.6517C54.7772 16.6517 56.6732 17.2757 57.9932 18.5237C59.3132 19.7477 59.9732 21.5717 59.9732 23.9957V35.7317H57.5252V32.7797C56.9492 33.7637 56.0972 34.5317 54.9692 35.0837C53.8652 35.6357 52.5452 35.9117 51.0092 35.9117C48.8972 35.9117 47.2172 35.4077 45.9692 34.3997C44.7212 33.3917 44.0972 32.0597 44.0972 30.4037C44.0972 28.7957 44.6732 27.4997 45.8252 26.5157C47.0012 25.5317 48.8612 25.0397 51.4052 25.0397H57.4172V23.8877C57.4172 22.2557 56.9612 21.0197 56.0492 20.1797C55.1372 19.3157 53.8052 18.8837 52.0532 18.8837C50.8532 18.8837 49.7012 19.0877 48.5972 19.4957C47.4932 19.8797 46.5452 20.4197 45.7532 21.1157L44.6012 19.2077C45.5612 18.3917 46.7132 17.7677 48.0572 17.3357C49.4012 16.8797 50.8172 16.6517 52.3052 16.6517ZM51.4052 33.8957C52.8452 33.8957 54.0812 33.5717 55.1132 32.9237C56.1452 32.2517 56.9132 31.2917 57.4172 30.0437V26.9477H51.4772C48.2372 26.9477 46.6172 28.0757 46.6172 30.3317C46.6172 31.4357 47.0372 32.3117 47.8772 32.9597C48.7172 33.5837 49.8932 33.8957 51.4052 33.8957ZM69.3636 20.5037C69.9636 19.2317 70.8516 18.2717 72.0276 17.6237C73.2276 16.9757 74.7036 16.6517 76.4556 16.6517V19.1357L75.8436 19.0997C73.8516 19.0997 72.2916 19.7117 71.1636 20.9357C70.0356 22.1597 69.4716 23.8757 69.4716 26.0837V35.7317H66.9156V16.7957H69.3636V20.5037ZM90.7315 16.6517C93.1075 16.6517 94.9915 17.3477 96.3835 18.7397C97.7995 20.1077 98.5075 22.1117 98.5075 24.7517V35.7317H95.9515V25.0037C95.9515 23.0357 95.4595 21.5357 94.4755 20.5037C93.4915 19.4717 92.0875 18.9557 90.2635 18.9557C88.2235 18.9557 86.6035 19.5677 85.4035 20.7917C84.2275 21.9917 83.6395 23.6597 83.6395 25.7957V35.7317H81.0835V16.7957H83.5315V20.2877C84.2275 19.1357 85.1875 18.2477 86.4115 17.6237C87.6595 16.9757 89.0995 16.6517 90.7315 16.6517Z" fill="#02A4FF"/>
<path d="M113.151 36.1637C111.159 36.1637 109.227 35.8997 107.355 35.3717C105.507 34.8197 104.019 34.1117 102.891 33.2477L104.871 28.8557C105.951 29.6477 107.235 30.2837 108.723 30.7637C110.211 31.2437 111.699 31.4837 113.187 31.4837C114.843 31.4837 116.067 31.2437 116.859 30.7637C117.651 30.2597 118.047 29.5997 118.047 28.7837C118.047 28.1837 117.807 27.6917 117.327 27.3077C116.871 26.8997 116.271 26.5757 115.527 26.3357C114.807 26.0957 113.823 25.8317 112.575 25.5437C110.655 25.0877 109.083 24.6317 107.859 24.1757C106.635 23.7197 105.579 22.9877 104.691 21.9797C103.827 20.9717 103.395 19.6277 103.395 17.9477C103.395 16.4837 103.791 15.1637 104.583 13.9877C105.375 12.7877 106.563 11.8397 108.147 11.1437C109.755 10.4477 111.711 10.0997 114.015 10.0997C115.623 10.0997 117.195 10.2917 118.731 10.6757C120.267 11.0597 121.611 11.6117 122.763 12.3317L120.963 16.7597C118.635 15.4397 116.307 14.7797 113.979 14.7797C112.347 14.7797 111.135 15.0437 110.343 15.5717C109.575 16.0997 109.191 16.7957 109.191 17.6597C109.191 18.5237 109.635 19.1717 110.523 19.6037C111.435 20.0117 112.815 20.4197 114.663 20.8277C116.583 21.2837 118.155 21.7397 119.379 22.1957C120.603 22.6517 121.647 23.3717 122.511 24.3557C123.399 25.3397 123.843 26.6717 123.843 28.3517C123.843 29.7917 123.435 31.1117 122.619 32.3117C121.827 33.4877 120.627 34.4237 119.019 35.1197C117.411 35.8157 115.455 36.1637 113.151 36.1637ZM136.648 36.0197C134.608 36.0197 132.772 35.5997 131.14 34.7597C129.532 33.8957 128.272 32.7077 127.36 31.1957C126.448 29.6837 125.992 27.9677 125.992 26.0477C125.992 24.1277 126.448 22.4117 127.36 20.8997C128.272 19.3877 129.532 18.2117 131.14 17.3717C132.772 16.5077 134.608 16.0757 136.648 16.0757C138.688 16.0757 140.512 16.5077 142.12 17.3717C143.728 18.2117 144.988 19.3877 145.9 20.8997C146.812 22.4117 147.268 24.1277 147.268 26.0477C147.268 27.9677 146.812 29.6837 145.9 31.1957C144.988 32.7077 143.728 33.8957 142.12 34.7597C140.512 35.5997 138.688 36.0197 136.648 36.0197ZM136.648 31.4117C138.088 31.4117 139.264 30.9317 140.176 29.9717C141.112 28.9877 141.58 27.6797 141.58 26.0477C141.58 24.4157 141.112 23.1197 140.176 22.1597C139.264 21.1757 138.088 20.6837 136.648 20.6837C135.208 20.6837 134.02 21.1757 133.084 22.1597C132.148 23.1197 131.68 24.4157 131.68 26.0477C131.68 27.6797 132.148 28.9877 133.084 29.9717C134.02 30.9317 135.208 31.4117 136.648 31.4117ZM156.386 18.9197C157.058 17.9837 157.958 17.2757 159.086 16.7957C160.238 16.3157 161.558 16.0757 163.046 16.0757V21.2597C162.422 21.2117 162.002 21.1877 161.786 21.1877C160.178 21.1877 158.918 21.6437 158.006 22.5557C157.094 23.4437 156.638 24.7877 156.638 26.5877V35.7317H151.022V16.3637H156.386V18.9197ZM179.545 34.7957C178.993 35.2037 178.309 35.5157 177.493 35.7317C176.701 35.9237 175.861 36.0197 174.973 36.0197C172.669 36.0197 170.881 35.4317 169.609 34.2557C168.361 33.0797 167.737 31.3517 167.737 29.0717V21.1157H164.749V16.7957H167.737V12.0797H173.353V16.7957H178.177V21.1157H173.353V28.9997C173.353 29.8157 173.557 30.4517 173.965 30.9077C174.397 31.3397 174.997 31.5557 175.765 31.5557C176.653 31.5557 177.409 31.3157 178.033 30.8357L179.545 34.7957Z" fill="#D5049A"/>
<mask id="mask0" mask-type="alpha" maskUnits="userSpaceOnUse" x="189" y="0" width="58" height="39">
<rect x="205" y="35.7317" width="36" height="13" rx="6.5" transform="rotate(-83 205 35.7317)" fill="url(#paint0_linear)"/>
<rect x="220" y="33.2317" width="36" height="13" rx="6.5" transform="rotate(-65.5 220 33.2317)" fill="url(#paint1_linear)"/>
<rect x="189" y="36.7317" width="36" height="13" rx="6.5" transform="rotate(-90 189 36.7317)" fill="url(#paint2_linear)"/>
</mask>
<g mask="url(#mask0)">
<rect x="228.71" y="-24.2537" width="55.4571" height="64.4394" transform="rotate(55 228.71 -24.2537)" fill="url(#paint3_linear)"/>
</g>
<defs>
<linearGradient id="paint0_linear" x1="223" y1="35.7317" x2="223" y2="48.7317" gradientUnits="userSpaceOnUse">
<stop stop-color="#02A4FF"/>
<stop offset="1" stop-color="#D4049A"/>
</linearGradient>
<linearGradient id="paint1_linear" x1="238" y1="33.2317" x2="238" y2="46.2317" gradientUnits="userSpaceOnUse">
<stop stop-color="#02A4FF"/>
<stop offset="1" stop-color="#D4049A"/>
</linearGradient>
<linearGradient id="paint2_linear" x1="207" y1="36.7317" x2="207" y2="49.7317" gradientUnits="userSpaceOnUse">
<stop stop-color="#02A4FF"/>
<stop offset="1" stop-color="#D4049A"/>
</linearGradient>
<linearGradient id="paint3_linear" x1="228.71" y1="7.966" x2="287.192" y2="7.966" gradientUnits="userSpaceOnUse">
<stop stop-color="#02A4FF"/>
<stop offset="1" stop-color="#D4049A"/>
</linearGradient>
</defs>
</svg>
