<svg width="681" height="502" viewBox="0 0 681 502" fill="none" xmlns="http://www.w3.org/2000/svg">
<g clip-path="url(#clip0)">
<path opacity="0.1" d="M7.33008 240.677C18.0835 282.209 40.8285 318.111 76.7722 335.514C151.495 371.682 320.015 353.029 445.787 331.617C510.846 320.542 568.031 289.98 609.571 246.969L7.33008 240.677Z" fill="#D5049A"/>
<path opacity="0.1" d="M666.872 45.182H597.863C594.588 45.182 591.902 42.7567 591.902 39.7933C591.902 36.8298 594.588 34.3984 597.863 34.3984H609.799C606.518 34.3984 603.837 31.9732 603.837 29.0036C603.837 26.0339 606.518 23.6149 609.799 23.6149H601.281C598 23.6149 595.313 21.1897 595.313 18.22C595.313 15.2504 598 12.8314 601.281 12.8314H637.299C629.306 9.47196 619.964 7.08387 609.199 5.82796C510.982 -5.57424 475.917 1.96742 463.548 9.71943C448.13 19.5022 431.004 26.2903 413.068 29.7274C352.473 41.0306 239.15 54.6291 136.439 25.3967C85.3892 10.8392 47.4458 35.4069 24.707 76.4746H678.858C678.003 64.5403 675.446 53.5155 670.754 43.8704C669.642 44.7279 668.276 45.1895 666.872 45.182Z" fill="#D5049A"/>
<path opacity="0.1" d="M1.47926 153.989C-1.17135 178.143 -0.27033 202.554 4.15369 226.448L610.035 246.487C626.713 229.2 640.883 209.662 652.132 188.443L1.47926 153.989ZM241.113 205.679H229.183C232.464 205.679 235.151 208.11 235.151 211.074C235.151 214.037 232.464 216.462 229.183 216.462H160.174C156.899 216.462 154.212 214.037 154.212 211.074C154.212 208.11 156.899 205.679 160.174 205.679H172.11C168.829 205.679 166.148 203.254 166.148 200.29C166.148 197.327 168.829 194.895 172.11 194.895H163.585C160.304 194.895 157.617 192.47 157.617 189.507C157.617 186.543 160.304 184.112 163.585 184.112H232.594C235.875 184.112 238.556 186.537 238.556 189.507C238.556 192.476 235.875 194.895 232.594 194.895H241.113C244.394 194.895 247.074 197.321 247.074 200.29C247.074 203.26 244.394 205.679 241.113 205.679Z" fill="#D5049A"/>
<path opacity="0.1" d="M678.883 76.8457L17.4087 91.3846C9.36062 110.087 4.02415 131.234 1.56641 153.147H667.294C671.626 140.326 674.841 127.155 676.902 113.781C678.889 100.906 679.681 88.4521 678.883 76.8457ZM135.87 124.515H123.94C127.221 124.515 129.908 126.946 129.908 129.91C129.908 132.873 127.221 135.304 123.94 135.304H54.9311C51.6561 135.304 48.9693 132.873 48.9693 129.91C48.9693 126.946 51.6561 124.515 54.9311 124.515H66.8669C63.5858 124.515 60.9052 122.089 60.9052 119.126C60.9052 116.163 63.5858 113.731 66.8669 113.731H58.3422C55.0611 113.731 52.3743 111.306 52.3743 108.343C52.3743 105.379 55.0611 102.948 58.3422 102.948H127.351C130.632 102.948 133.313 105.373 133.313 108.343C133.313 111.312 130.632 113.731 127.351 113.731H135.87C139.151 113.731 141.831 116.163 141.831 119.126C141.831 122.089 139.151 124.515 135.87 124.515Z" fill="#D5049A"/>
<path opacity="0.1" d="M337.448 483.236C490.274 483.236 614.164 471.846 614.164 457.796C614.164 443.746 490.274 432.356 337.448 432.356C184.622 432.356 60.7314 443.746 60.7314 457.796C60.7314 471.846 184.622 483.236 337.448 483.236Z" fill="#D5049A"/>
<g opacity="0.1">
<path opacity="0.1" d="M522.955 175.803C523.083 175.561 523.194 175.311 523.289 175.054C523.989 173.112 523.679 170.977 523.686 168.911C523.685 168.222 523.75 167.534 523.878 166.857C523.306 168.079 523.028 169.418 523.067 170.767C523.06 172.431 523.258 174.176 522.955 175.803Z" fill="black"/>
<path opacity="0.1" d="M599.275 269.242C596.706 271.153 592.899 270.652 590.305 268.765C587.711 266.878 586.132 263.915 585.037 260.902C583.668 257.252 582.653 253.131 579.533 250.786C578.412 249.945 577.057 249.394 575.961 248.553C573.485 246.66 572.246 243.536 571.355 240.541C570.21 236.767 569.306 232.888 567.64 229.325C565.975 225.761 563.363 222.445 559.76 220.818C556.392 219.302 552.504 219.401 549.019 218.17C543.013 216.054 538.575 211.012 532.613 208.636C530.704 207.832 528.895 206.811 527.221 205.592C524.286 203.569 523.506 202.424 523.073 198.855C522.454 193.497 517.006 188.826 517.854 183.778C517.716 184.051 517.594 184.332 517.489 184.619C515.632 190.063 521.822 194.994 522.441 200.705C522.844 204.274 523.68 205.419 526.589 207.442C528.263 208.661 530.073 209.682 531.981 210.486C537.943 212.862 542.382 217.91 548.387 220.02C551.872 221.257 555.76 221.152 559.128 222.668C562.731 224.295 565.319 227.617 567.009 231.174C568.699 234.732 569.603 238.598 570.723 242.391C571.633 245.385 572.828 248.51 575.329 250.403C576.45 251.244 577.806 251.795 578.901 252.636C581.997 254.981 583.037 259.101 584.405 262.752C585.532 265.752 587.11 268.722 589.704 270.603C592.298 272.483 596.106 272.991 598.675 271.079C600.315 269.842 601.151 267.955 601.702 265.932C601.212 267.236 600.373 268.382 599.275 269.242Z" fill="black"/>
<path opacity="0.1" d="M611.998 250.688C611.761 251.131 611.658 251.634 611.701 252.135C613.1 250.756 616.257 251.566 617.359 249.791C617.615 249.352 617.716 248.84 617.644 248.337C616.208 249.698 613.051 248.887 611.998 250.688Z" fill="black"/>
<path opacity="0.1" d="M602.903 261.267C602.786 261.886 602.668 262.548 602.52 263.191C606.308 264.373 610.685 261.335 611.304 257.499C609.8 260.45 606.085 262.424 602.903 261.267Z" fill="black"/>
</g>
<path opacity="0.1" d="M529.127 468.926C527.326 468.994 517.086 468.926 517.086 468.926C516.936 468.769 516.796 468.604 516.665 468.431C519.284 467.54 524.942 466.203 529.127 468.926Z" fill="black"/>
<path opacity="0.1" d="M558.416 468.926C556.615 468.994 546.375 468.926 546.375 468.926C546.225 468.769 546.085 468.604 545.954 468.431C548.56 467.54 554.219 466.203 558.416 468.926Z" fill="black"/>
<path d="M502.91 265.932C505.987 265.932 508.481 264.242 508.481 262.158C508.481 260.073 505.987 258.384 502.91 258.384C499.832 258.384 497.338 260.073 497.338 262.158C497.338 264.242 499.832 265.932 502.91 265.932Z" fill="#575A89"/>
<path d="M321.296 472.229C426.774 472.229 512.282 386.778 512.282 281.368C512.282 175.958 426.774 90.5061 321.296 90.5061C215.817 90.5061 130.31 175.958 130.31 281.368C130.31 386.778 215.817 472.229 321.296 472.229Z" fill="#D5049A"/>
<path d="M421.507 377.281C421.507 407.41 374.11 379.855 323.296 379.855C272.482 379.855 221.086 406.272 221.086 376.143C221.086 358.962 237.467 335.069 260.967 317.715C278.673 304.636 300.415 295.269 322.256 295.269C344.716 295.269 366.718 305.409 384.269 319.33C406.42 336.881 421.507 360.465 421.507 377.281Z" fill="#444053"/>
<path d="M384.263 319.317C357.252 315.253 308.401 310.297 260.967 317.703C278.672 304.624 300.415 295.257 322.256 295.257C344.71 295.257 366.712 305.397 384.263 319.317Z" fill="#F6F8FB"/>
<path opacity="0.05" d="M221.086 146.639C221.086 146.639 163.555 183.394 164.025 240.888C164.496 298.381 221.086 146.639 221.086 146.639Z" fill="black"/>
<path d="M512.208 42.8309C512.208 42.8309 460.081 39.6942 466.229 76.1961C466.229 76.1961 464.99 82.6427 470.859 85.5752C470.859 85.5752 470.952 82.8716 476.202 83.7872C478.073 84.1001 479.974 84.1914 481.866 84.0595C484.424 83.8857 486.854 82.8821 488.788 81.2012C488.788 81.2012 503.441 75.1567 509.143 51.2201C509.143 51.2201 513.359 45.9985 513.192 44.6622L504.395 48.4114C504.395 48.4114 507.397 54.7528 505.014 60.0239C505.014 60.0239 504.729 48.6464 503.039 48.8877C502.699 48.9434 498.47 51.084 498.47 51.084C498.47 51.084 503.64 62.1336 499.708 70.1578C499.708 70.1578 501.188 56.5469 496.823 51.8821L490.633 55.4952C490.633 55.4952 496.675 66.9036 492.577 76.2147C492.577 76.2147 493.629 61.9356 489.333 56.3737L483.718 60.7478C483.718 60.7478 489.395 71.9953 485.934 79.7164C485.934 79.7164 485.482 63.0925 482.504 61.8366C482.504 61.8366 477.595 66.1674 476.846 67.943C476.846 67.943 480.734 76.1033 478.325 80.4093C478.325 80.4093 476.846 69.335 475.632 69.2731C475.632 69.2731 470.742 76.6106 470.228 81.6466C470.228 81.6466 470.444 74.1607 474.444 68.574C474.444 68.574 469.714 69.3845 466.959 72.4531C466.959 72.4531 467.721 67.2624 475.626 66.8108C475.626 66.8108 479.669 61.2427 480.752 60.9086C480.752 60.9086 472.859 60.2466 468.073 62.3687C468.073 62.3687 472.283 57.475 482.195 59.696L487.766 55.1797C487.766 55.1797 477.378 53.7567 472.97 55.3282C472.97 55.3282 478.041 50.9974 489.258 54.1527L495.294 50.5458C495.294 50.5458 486.435 48.6403 481.155 49.3084C481.155 49.3084 486.726 46.3079 497.059 49.5621L501.392 47.6256C501.392 47.6256 494.898 46.3512 492.998 46.1532C491.097 45.9552 490.998 45.4231 490.998 45.4231C495.122 44.753 499.351 45.2436 503.212 46.8399C503.212 46.8399 512.362 43.4063 512.208 42.8309Z" fill="#D5049A"/>
<path d="M458.744 26.6031C458.744 26.6031 435.219 25.1801 437.968 41.674C437.968 41.674 437.417 44.588 440.06 45.912C440.06 45.912 440.097 44.6746 442.474 45.1077C443.319 45.2466 444.177 45.2881 445.031 45.2314C446.188 45.1489 447.286 44.6954 448.164 43.9384C448.164 43.9384 454.782 41.2038 457.357 30.3894C457.357 30.3894 459.264 28.0322 459.214 27.4259L455.24 29.1211C455.24 29.1211 456.602 31.9856 455.531 34.3675C455.531 34.3675 455.401 29.2263 454.639 29.35C454.485 29.35 452.572 30.3399 452.572 30.3399C452.572 30.3399 454.912 35.3326 453.147 38.958C453.147 38.958 453.816 32.8084 451.847 30.6987L449.049 32.332C449.049 32.332 451.779 37.4918 449.928 41.6988C449.928 41.6988 450.399 35.246 448.461 32.7342L445.923 34.7077C445.923 34.7077 448.486 39.7871 446.926 43.2764C446.926 43.2764 446.721 35.7657 445.372 35.1965C445.372 35.1965 443.155 37.1515 442.815 37.9558C442.815 37.9558 444.573 41.6678 443.484 43.5919C443.484 43.5919 442.815 38.5868 442.245 38.5683C442.245 38.5683 440.035 41.8782 439.806 44.1364C439.913 42.0349 440.568 39.9979 441.707 38.228C440.433 38.4688 439.258 39.0776 438.327 39.9789C438.327 39.9789 438.667 37.6341 442.252 37.4299C442.252 37.4299 444.078 34.9181 444.567 34.7634C444.567 34.7634 441.001 34.4665 438.84 35.4254C438.84 35.4254 440.741 33.2105 445.223 34.188L447.699 32.1526C447.699 32.1526 443.007 31.5339 441.013 32.2145C441.013 32.2145 443.304 30.2595 448.374 31.6886L451.098 30.0553C451.098 30.0553 447.099 29.1953 444.709 29.5047C444.709 29.5047 447.229 28.1498 451.897 29.6222L453.847 28.7437C453.847 28.7437 450.912 28.1683 450.058 28.0817C449.204 27.9951 449.148 27.7538 449.148 27.7538C451.007 27.4449 452.914 27.6591 454.658 28.3725C454.658 28.3725 458.812 26.8629 458.744 26.6031Z" fill="#D5049A"/>
<path opacity="0.1" d="M664.328 451.64C673.536 451.64 681 450.379 681 448.825C681 447.27 673.536 446.01 664.328 446.01C655.12 446.01 647.656 447.27 647.656 448.825C647.656 450.379 655.12 451.64 664.328 451.64Z" fill="#D5049A"/>
<path opacity="0.1" d="M28.954 498.467C38.1616 498.467 45.6259 497.207 45.6259 495.652C45.6259 494.098 38.1616 492.837 28.954 492.837C19.7465 492.837 12.2822 494.098 12.2822 495.652C12.2822 497.207 19.7465 498.467 28.954 498.467Z" fill="#D5049A"/>
<path opacity="0.1" d="M125.735 502C134.943 502 142.407 500.74 142.407 499.185C142.407 497.63 134.943 496.37 125.735 496.37C116.528 496.37 109.063 497.63 109.063 499.185C109.063 500.74 116.528 502 125.735 502Z" fill="#D5049A"/>
<path opacity="0.1" d="M18.7701 420.242C18.4722 420.67 18.2386 421.139 18.0767 421.634C12.1212 428.625 8.94528 435.152 14.6718 435.313C20.002 435.468 26.4343 444.995 27.9325 447.402C27.882 447.588 27.822 447.772 27.7529 447.952C27.7529 447.952 20.2497 435.492 14.1332 435.313C8.01666 435.133 12.0531 427.734 18.7701 420.242Z" fill="black"/>
<path d="M253.395 256.342C257.029 256.138 274.134 254.851 284.999 248.658C286.744 247.632 288.715 247.052 290.738 246.969C294.192 246.87 298.167 248.312 295.622 256.379C291.499 269.576 267.56 284.424 252.702 283.601C238.413 282.809 221.463 277.056 210.27 256.825C209.197 254.879 208.669 252.68 208.741 250.459C208.871 246.375 210.357 241.259 218.027 246.963C228.39 254.666 248.052 256.126 251.996 256.342C252.462 256.367 252.929 256.367 253.395 256.342Z" fill="#444053"/>
<path d="M390.832 256.342C394.466 256.138 411.571 254.851 422.436 248.658C424.18 247.632 426.152 247.052 428.174 246.969C431.629 246.87 435.603 248.312 433.059 256.379C428.936 269.576 404.996 284.424 390.138 283.601C375.85 282.809 358.899 277.056 347.706 256.825C346.634 254.879 346.106 252.68 346.177 250.459C346.307 246.375 347.793 241.259 355.463 246.963C365.827 254.666 385.489 256.126 389.432 256.342C389.898 256.367 390.365 256.367 390.832 256.342Z" fill="#444053"/>
</g>
<defs>
<clipPath id="clip0">
<rect width="681" height="502" fill="white"/>
</clipPath>
</defs>
</svg>
