<svg width="628" height="471" viewBox="0 0 628 471" fill="none" xmlns="http://www.w3.org/2000/svg">
<path fill-rule="evenodd" clip-rule="evenodd" d="M450.598 2.89517L448.432 1.86194L449.32 0H0V129.165L0.170616 128.807L2.16352 129.758L1.24395 131.686C2.62106 130.694 4.38139 130.683 6.39596 131.644L5.43506 133.658C5.2721 133.554 5.12046 133.482 4.96883 133.409C3.02222 132.481 1.22319 132.898 0 134.688V471H192.554C191.866 470.93 191.171 470.727 190.492 470.403C187.134 468.802 185.812 465.273 187.486 461.764C189.16 458.254 192.724 457.083 196.081 458.684C197.706 459.459 198.846 460.747 199.211 462.437L202.228 456.111L204.307 457.103L197.679 471H628V203.363L627.055 205.344L625.062 204.393L625.93 202.573C624.379 203.429 622.596 203.376 620.906 202.57C617.549 200.969 616.227 197.44 617.901 193.931C619.575 190.422 623.138 189.25 626.496 190.851C627.06 191.12 627.565 191.451 628 191.839V0H469.561C469.705 1.03089 469.501 2.20667 468.882 3.50606L465.73 10.113L463.651 9.12109L466.689 2.75245C467.191 1.69806 467.328 0.777468 467.128 0H459.732L456.914 5.90775L454.834 4.91586L457.179 0H451.979L450.598 2.89517ZM628 197.965V195.086C627.633 194.089 626.869 193.262 625.801 192.753C623.592 191.699 621.17 192.485 620.002 194.933C618.835 197.381 619.738 199.779 621.947 200.833C624.135 201.877 626.568 201.069 627.735 198.622C627.84 198.402 627.928 198.183 628 197.965ZM195.233 471H193.634C194.283 470.932 194.917 470.737 195.516 470.406L195.233 471ZM486.195 17.0025C484.521 18.1715 482.396 18.2217 480.338 17.2402C476.807 15.556 475.441 11.8993 477.073 8.47671C478.706 5.05411 482.397 3.83684 485.928 5.521C487.986 6.50256 489.294 8.16363 489.44 10.2006L487.373 10.4644C487.173 8.98671 486.295 7.92955 485.039 7.33027C482.786 6.25572 480.342 7.03113 479.174 9.47894C477.986 11.9701 478.932 14.3357 481.185 15.4102C482.441 16.0095 483.815 16.0269 485.089 15.2517L486.195 17.0025ZM499.038 19.1929L501.869 13.2575L503.949 14.2494L498.473 25.7303L496.501 24.7901L497.328 23.0571C495.915 23.8455 494.165 23.8351 492.54 23.0602C489.573 21.6447 488.376 19.0798 489.988 15.7005L493.139 9.0936L495.219 10.0855L492.181 16.4541C491.107 18.707 491.696 20.3707 493.667 21.3109C495.833 22.3442 497.86 21.6624 499.038 19.1929ZM509.901 17.0883L508.981 19.0162C510.358 18.0244 512.119 18.0132 514.133 18.9741L513.172 20.9887C513.009 20.8843 512.858 20.812 512.706 20.7397C510.475 19.6755 508.437 20.3789 507.239 22.8917L504.511 28.6105L502.432 27.6186L507.908 16.1377L509.901 17.0883ZM515.409 21.3909C517.055 21.006 519.015 21.3024 520.856 22.1806C523.997 23.6788 525.05 26.0424 523.552 29.1834L520.245 36.1153L518.274 35.175L518.997 33.6587C517.808 34.3678 516.241 34.3648 514.443 33.5072C511.843 32.2673 510.858 30.0957 511.809 28.1028C512.687 26.2615 514.602 25.3134 518.024 26.9459L521.317 28.5164L521.513 28.1049C522.35 26.3502 521.818 24.8465 519.76 23.8649C518.395 23.214 516.782 23.0293 515.532 23.3639L515.409 21.3909ZM513.908 28.9977C513.361 30.1458 513.973 31.3153 515.554 32.0695C517.114 32.8134 518.689 32.6875 519.84 31.6141L520.604 30.0111L517.398 28.4819C515.34 27.5004 514.373 28.0229 513.908 28.9977ZM530.736 29.1535C532.139 28.3867 533.932 28.4178 535.752 29.2857C538.546 30.6186 539.753 33.1618 538.141 36.5411L534.99 43.148L532.91 42.1561L535.948 35.7874C537.022 33.5346 536.423 31.8926 534.452 30.9523C532.242 29.8984 530.182 30.5379 528.994 33.029L526.173 38.9428L524.094 37.9509L529.57 26.47L531.563 27.4205L530.736 29.1535ZM552.303 39.4402L555.32 33.1149L557.399 34.1068L549.733 50.1801L547.74 49.2295L548.608 47.4099C547.056 48.2653 545.273 48.2126 543.584 47.4067C540.226 45.8052 538.905 42.2765 540.578 38.7672C542.252 35.258 545.816 34.086 549.173 35.6875C550.798 36.4624 551.939 37.7509 552.303 39.4402ZM542.68 39.7694C541.512 42.2172 542.415 44.6158 544.625 45.6697C546.813 46.7133 549.245 45.9059 550.413 43.4581C551.58 41.0102 550.667 38.6333 548.479 37.5898C546.269 36.5359 543.847 37.3216 542.68 39.7694ZM7.67206 134.06C9.31809 133.676 11.2774 133.972 13.1186 134.85C16.2596 136.348 17.3127 138.712 15.8145 141.853L12.5082 148.785L10.5369 147.845L11.2602 146.328C10.071 147.037 8.50368 147.034 6.70573 146.177C4.10628 144.937 3.12123 142.765 4.0718 140.772C4.95004 138.931 6.86471 137.983 10.2873 139.615L13.5799 141.186L13.7763 140.774C14.6132 139.02 14.0807 137.516 12.0228 136.534C10.6581 135.884 9.04439 135.699 7.79462 136.033L7.67206 134.06ZM6.17102 141.667C5.62341 142.815 6.23558 143.985 7.81691 144.739C9.37658 145.483 10.9523 145.357 12.1024 144.284L12.867 142.681L9.66104 141.151C7.60314 140.17 6.63598 140.692 6.17102 141.667ZM22.999 141.823C24.4018 141.056 26.1951 141.087 28.0147 141.955C30.8091 143.288 32.0157 145.831 30.4039 149.211L27.2526 155.818L25.173 154.826L28.2107 148.457C29.2853 146.204 28.6858 144.562 26.7145 143.622C24.505 142.568 22.445 143.207 21.2568 145.699L18.4361 151.612L16.3566 150.62L21.8327 139.139L23.8256 140.09L22.999 141.823ZM44.5656 152.11L47.5826 145.784L49.6622 146.776L41.9956 162.85L40.0027 161.899L40.8706 160.079C39.3192 160.935 37.5362 160.882 35.8466 160.076C32.489 158.475 31.1674 154.946 32.8412 151.437C34.515 147.927 38.0787 146.756 41.4364 148.357C43.061 149.132 44.2014 150.42 44.5656 152.11ZM34.9424 152.439C33.7749 154.887 34.6783 157.285 36.8878 158.339C39.0757 159.383 41.5082 158.575 42.6758 156.128C43.8433 153.68 42.9296 151.303 40.7417 150.259C38.5322 149.205 36.11 149.991 34.9424 152.439ZM112.106 78.0081L109.94 76.9749L117.173 61.8115L119.339 62.8447L112.106 78.0081ZM122.985 71.2314C124.388 70.4647 126.181 70.4957 128.001 71.3636C130.795 72.6965 132.002 75.2397 130.39 78.619L127.239 85.2259L125.159 84.234L128.197 77.8654C129.272 75.6125 128.672 73.9705 126.701 73.0303C124.491 71.9764 122.431 72.6158 121.243 75.107L118.423 81.0207L116.343 80.0288L121.819 68.5479L123.812 69.4985L122.985 71.2314ZM147.704 92.1154C146.029 93.2844 143.905 93.3347 141.847 92.3531C138.316 90.6689 136.949 87.0123 138.582 83.5897C140.214 80.1671 143.906 78.9498 147.437 80.6339C149.495 81.6155 150.803 83.2766 150.948 85.3135L148.881 85.5774C148.682 84.0997 147.803 83.0425 146.547 82.4432C144.294 81.3687 141.85 82.1441 140.683 84.5919C139.495 87.083 140.44 89.4486 142.693 90.5232C143.95 91.1224 145.324 91.1398 146.598 90.3647L147.704 92.1154ZM160.547 94.3058L163.378 88.3704L165.457 89.3623L159.981 100.843L158.01 99.903L158.837 98.17C157.424 98.9585 155.674 98.9481 154.049 98.1732C151.081 96.7576 149.885 94.1927 151.497 90.8135L154.648 84.2065L156.728 85.1984L153.69 91.5671C152.615 93.8199 153.205 95.4836 155.176 96.4239C157.342 97.4571 159.369 96.7753 160.547 94.3058ZM171.409 92.2012L170.49 94.1291C171.867 93.1374 173.627 93.1261 175.642 94.087L174.681 96.1016C174.518 95.9973 174.366 95.925 174.215 95.8526C171.983 94.7884 169.946 95.4919 168.747 98.0046L166.02 103.723L163.94 102.732L169.416 91.2506L171.409 92.2012ZM176.918 96.5038C178.564 96.119 180.523 96.4153 182.364 97.2936C185.505 98.7918 186.558 101.155 185.06 104.296L181.754 111.228L179.783 110.288L180.506 108.772C179.317 109.481 177.749 109.478 175.951 108.62C173.352 107.38 172.367 105.209 173.318 103.216C174.196 101.374 176.11 100.426 179.533 102.059L182.826 103.629L183.022 103.218C183.859 101.463 183.326 99.9594 181.268 98.9779C179.904 98.327 178.29 98.1423 177.04 98.4768L176.918 96.5038ZM175.417 104.111C174.869 105.259 175.481 106.428 177.063 107.182C178.622 107.926 180.198 107.8 181.348 106.727L182.113 105.124L178.907 103.595C176.849 102.613 175.882 103.136 175.417 104.111ZM192.245 104.266C193.647 103.5 195.441 103.531 197.26 104.399C200.055 105.731 201.261 108.275 199.65 111.654L196.498 118.261L194.419 117.269L197.456 110.9C198.531 108.648 197.931 107.005 195.96 106.065C193.751 105.011 191.691 105.651 190.503 108.142L187.682 114.056L185.602 113.064L191.078 101.583L193.071 102.533L192.245 104.266ZM213.811 114.553L216.828 108.228L218.908 109.22L211.241 125.293L209.248 124.342L210.116 122.523C208.565 123.378 206.782 123.326 205.092 122.52C201.735 120.918 200.413 117.389 202.087 113.88C203.761 110.371 207.324 109.199 210.682 110.8C212.307 111.575 213.447 112.864 213.811 114.553ZM204.188 114.882C203.021 117.33 203.924 119.729 206.133 120.783C208.321 121.826 210.754 121.019 211.921 118.571C213.089 116.123 212.175 113.746 209.987 112.703C207.778 111.649 205.356 112.435 204.188 114.882ZM18.0171 269.695L20.1833 270.728L27.4159 255.565L25.2497 254.531L18.0171 269.695ZM36.0779 264.084C34.2583 263.216 32.4649 263.185 31.0622 263.951L31.8888 262.218L29.8958 261.268L24.4197 272.749L26.4993 273.741L29.32 267.827C30.5082 265.336 32.5682 264.696 34.7777 265.75C36.749 266.69 37.3484 268.333 36.2739 270.585L33.2362 276.954L35.3158 277.946L38.4671 271.339C40.0789 267.96 38.8723 265.416 36.0779 264.084ZM49.9237 285.073C51.9816 286.055 54.1062 286.004 55.7806 284.835L54.6745 283.085C53.4008 283.86 52.0264 283.842 50.77 283.243C48.5171 282.169 47.5714 279.803 48.7596 277.312C49.9271 274.864 52.371 274.089 54.6239 275.163C55.8803 275.762 56.7587 276.82 56.958 278.297L59.0249 278.034C58.8797 275.997 57.5714 274.335 55.5135 273.354C51.9826 271.67 48.2909 272.887 46.6584 276.31C45.0259 279.732 46.3928 283.389 49.9237 285.073ZM71.4547 281.09L68.6236 287.026C67.4457 289.495 65.4188 290.177 63.2526 289.144C61.2813 288.204 60.6922 286.54 61.7667 284.287L64.8044 277.918L62.7249 276.927L59.5735 283.533C57.9617 286.913 59.158 289.478 62.1257 290.893C63.7504 291.668 65.5004 291.678 66.9134 290.89L66.0869 292.623L68.0581 293.563L73.5342 282.082L71.4547 281.09ZM78.5665 286.849L79.486 284.921L77.4931 283.971L72.017 295.452L74.0966 296.443L76.8243 290.725C78.0228 288.212 80.0601 287.508 82.2913 288.573C82.443 288.645 82.5946 288.717 82.7576 288.822L83.7185 286.807C81.7039 285.846 79.9436 285.857 78.5665 286.849ZM90.4411 290.014C88.5999 289.135 86.6406 288.839 84.9946 289.224L85.1171 291.197C86.3669 290.862 87.9806 291.047 89.3453 291.698C91.4032 292.679 91.9357 294.183 91.0988 295.938L90.9025 296.349L87.6098 294.779C84.1872 293.146 82.2726 294.094 81.3943 295.936C80.4437 297.929 81.4288 300.1 84.0282 301.34C85.8262 302.198 87.3935 302.201 88.5827 301.492L87.8594 303.008L89.8307 303.948L93.137 297.016C94.6352 293.875 93.5821 291.512 90.4411 290.014ZM85.1394 299.902C83.5581 299.148 82.9459 297.979 83.4935 296.831C83.9585 295.856 84.9257 295.333 86.9835 296.315L90.1895 297.844L89.4249 299.447C88.2748 300.52 86.6991 300.646 85.1394 299.902ZM105.337 297.119C103.518 296.251 101.724 296.22 100.321 296.986L101.148 295.253L99.1552 294.303L93.6791 305.784L95.7586 306.776L98.5793 300.862C99.7675 298.371 101.828 297.731 104.037 298.785C106.008 299.725 106.608 301.368 105.533 303.62L102.496 309.989L104.575 310.981L107.726 304.374C109.338 300.995 108.132 298.451 105.337 297.119ZM124.905 300.948L121.888 307.273C121.524 305.584 120.384 304.295 118.759 303.52C115.401 301.919 111.838 303.091 110.164 306.6C108.49 310.109 109.811 313.638 113.169 315.24C114.859 316.046 116.642 316.098 118.193 315.243L117.325 317.062L119.318 318.013L126.985 301.94L124.905 300.948ZM114.21 313.503C112.001 312.449 111.097 310.05 112.265 307.602C113.432 305.155 115.855 304.369 118.064 305.423C120.252 306.466 121.166 308.843 119.998 311.291C118.831 313.739 116.398 314.546 114.21 313.503ZM279.186 39.4185L281.352 40.4518L288.585 25.2883L286.419 24.2551L279.186 39.4185ZM297.247 33.8073C295.427 32.9394 293.634 32.9083 292.231 33.6751L293.058 31.9421L291.065 30.9915L285.589 42.4724L287.668 43.4643L290.489 37.5506C291.677 35.0595 293.737 34.42 295.947 35.4739C297.918 36.4141 298.517 38.0562 297.443 40.309L294.405 46.6777L296.485 47.6696L299.636 41.0626C301.248 37.6834 300.041 35.1401 297.247 33.8073ZM311.093 54.7967C313.151 55.7783 315.275 55.7281 316.95 54.559L315.843 52.8083C314.57 53.5835 313.195 53.5661 311.939 52.9668C309.686 51.8922 308.74 49.5267 309.929 47.0355C311.096 44.5877 313.54 43.8123 315.793 44.8869C317.049 45.4861 317.928 46.5433 318.127 48.021L320.194 47.7572C320.049 45.7202 318.74 44.0591 316.682 43.0776C313.151 41.3934 309.46 42.6107 307.827 46.0333C306.195 49.4559 307.562 53.1126 311.093 54.7967ZM332.624 50.8141L329.793 56.7495C328.615 59.219 326.588 59.9007 324.421 58.8675C322.45 57.9273 321.861 56.2636 322.936 54.0107L325.973 47.6421L323.894 46.6502L320.742 53.2571C319.131 56.6364 320.327 59.2013 323.295 60.6168C324.919 61.3917 326.669 61.4021 328.082 60.6137L327.256 62.3466L329.227 63.2869L334.703 51.806L332.624 50.8141ZM339.735 56.5728L340.655 54.6449L338.662 53.6943L333.186 65.1752L335.266 66.1671L337.993 60.4483C339.192 57.9355 341.229 57.232 343.46 58.2963C343.612 58.3686 343.764 58.4409 343.926 58.5452L344.887 56.5307C342.873 55.5698 341.112 55.581 339.735 56.5728ZM351.61 59.7372C349.769 58.859 347.81 58.5626 346.163 58.9475L346.286 60.9204C347.536 60.5859 349.15 60.7706 350.514 61.4215C352.572 62.4031 353.105 63.9068 352.268 65.6614L352.071 66.073L348.779 64.5025C345.356 62.87 343.441 63.8181 342.563 65.6594C341.613 67.6523 342.598 69.8239 345.197 71.0638C346.995 71.9213 348.562 71.9244 349.752 71.2153L349.028 72.7316L351 73.6718L354.306 66.74C355.804 63.599 354.751 61.2354 351.61 59.7372ZM346.308 69.6261C344.727 68.8718 344.115 67.7024 344.662 66.5543C345.127 65.5795 346.095 65.057 348.152 66.0385L351.358 67.5677L350.594 69.1707C349.444 70.2441 347.868 70.37 346.308 69.6261ZM366.506 66.8423C364.686 65.9744 362.893 65.9433 361.49 66.7101L362.317 64.9771L360.324 64.0266L354.848 75.5074L356.928 76.4993L359.748 70.5856C360.936 68.0945 362.996 67.455 365.206 68.5089C367.177 69.4491 367.777 71.0912 366.702 73.344L363.664 79.7127L365.744 80.7046L368.895 74.0976C370.507 70.7184 369.301 68.1751 366.506 66.8423ZM386.074 70.6715L383.057 76.9968C382.693 75.3075 381.552 74.019 379.928 73.2441C376.57 71.6426 373.006 72.8145 371.333 76.3238C369.659 79.833 370.98 83.3617 374.338 84.9632C376.028 85.7692 377.811 85.8219 379.362 84.9665L378.494 86.7861L380.487 87.7366L388.154 71.6634L386.074 70.6715ZM375.379 83.2263C373.17 82.1724 372.266 79.7738 373.434 77.326C374.601 74.8782 377.024 74.0925 379.233 75.1463C381.421 76.1899 382.335 78.5668 381.167 81.0146C380 83.4624 377.567 84.2699 375.379 83.2263ZM189.429 233.172L187.263 232.139L194.495 216.975L196.662 218.008L189.429 233.172ZM200.308 226.395C201.711 225.628 203.504 225.659 205.324 226.527C208.118 227.86 209.325 230.403 207.713 233.783L204.561 240.39L202.482 239.398L205.52 233.029C206.594 230.776 205.995 229.134 204.023 228.194C201.814 227.14 199.754 227.779 198.566 230.271L195.745 236.184L193.665 235.192L199.142 223.712L201.134 224.662L200.308 226.395ZM225.026 247.279C223.352 248.448 221.227 248.498 219.169 247.517C215.639 245.833 214.272 242.176 215.904 238.753C217.537 235.331 221.228 234.113 224.759 235.798C226.817 236.779 228.125 238.44 228.271 240.477L226.204 240.741C226.004 239.263 225.126 238.206 223.87 237.607C221.617 236.532 219.173 237.308 218.005 239.756C216.817 242.247 217.763 244.612 220.016 245.687C221.272 246.286 222.646 246.303 223.92 245.528L225.026 247.279ZM237.869 249.469L240.7 243.534L242.78 244.526L237.304 256.007L235.333 255.067L236.159 253.334C234.746 254.122 232.996 254.112 231.371 253.337C228.404 251.921 227.207 249.356 228.819 245.977L231.971 239.37L234.05 240.362L231.012 246.731C229.938 248.984 230.527 250.647 232.498 251.588C234.665 252.621 236.691 251.939 237.869 249.469ZM248.732 247.365L247.812 249.293C249.189 248.301 250.95 248.29 252.964 249.251L252.003 251.265C251.84 251.161 251.689 251.089 251.537 251.016L251.537 251.016C249.306 249.952 247.269 250.655 246.07 253.168L243.342 258.887L241.263 257.895L246.739 246.414L248.732 247.365ZM254.24 251.667C255.886 251.283 257.846 251.579 259.687 252.457C262.828 253.955 263.881 256.319 262.383 259.46L259.076 266.392L257.105 265.452L257.828 263.935C256.639 264.644 255.072 264.641 253.274 263.784C250.675 262.544 249.689 260.372 250.64 258.379C251.518 256.538 253.433 255.59 256.856 257.223L260.148 258.793L260.345 258.381C261.181 256.627 260.649 255.123 258.591 254.142C257.226 253.491 255.613 253.306 254.363 253.64L254.24 251.667ZM252.739 259.274C252.192 260.422 252.804 261.592 254.385 262.346C255.945 263.09 257.521 262.964 258.671 261.891L259.435 260.288L256.229 258.759C254.171 257.777 253.204 258.299 252.739 259.274ZM269.567 259.43C270.97 258.663 272.763 258.694 274.583 259.562C277.377 260.895 278.584 263.438 276.972 266.818L273.821 273.425L271.741 272.433L274.779 266.064C275.853 263.811 275.254 262.169 273.283 261.229C271.073 260.175 269.013 260.814 267.825 263.306L265.004 269.219L262.925 268.227L268.401 256.747L270.394 257.697L269.567 259.43ZM291.134 269.717L294.151 263.392L296.23 264.383L288.564 280.457L286.571 279.506L287.439 277.686C285.887 278.542 284.104 278.489 282.415 277.683C279.057 276.082 277.736 272.553 279.409 269.044C281.083 265.535 284.647 264.363 288.005 265.964C289.629 266.739 290.77 268.027 291.134 269.717ZM281.511 270.046C280.343 272.494 281.247 274.892 283.456 275.946C285.644 276.99 288.076 276.182 289.244 273.735C290.412 271.287 289.498 268.91 287.31 267.866C285.1 266.812 282.678 267.598 281.511 270.046ZM95.3396 424.858L97.5058 425.892L104.738 410.728L102.572 409.695L95.3396 424.858ZM113.4 419.247C111.581 418.379 109.787 418.348 108.385 419.115L109.211 417.382L107.218 416.431L101.742 427.912L103.822 428.904L106.643 422.991C107.831 420.499 109.891 419.86 112.1 420.914C114.072 421.854 114.671 423.496 113.596 425.749L110.559 432.118L112.638 433.11L115.79 426.503C117.401 423.123 116.195 420.58 113.4 419.247ZM127.246 440.237C129.304 441.218 131.429 441.168 133.103 439.999L131.997 438.248C130.723 439.023 129.349 439.006 128.093 438.407C125.84 437.332 124.894 434.967 126.082 432.475C127.25 430.028 129.694 429.252 131.946 430.327C133.203 430.926 134.081 431.983 134.281 433.461L136.347 433.197C136.202 431.16 134.894 429.499 132.836 428.518C129.305 426.833 125.613 428.051 123.981 431.473C122.348 434.896 123.715 438.553 127.246 440.237ZM148.777 436.254L145.946 442.189C144.768 444.659 142.741 445.341 140.575 444.307C138.604 443.367 138.015 441.704 139.089 439.451L142.127 433.082L140.047 432.09L136.896 438.697C135.284 442.076 136.481 444.641 139.448 446.057C141.073 446.832 142.823 446.842 144.236 446.054L143.409 447.787L145.381 448.727L150.857 437.246L148.777 436.254ZM155.889 442.013L156.809 440.085L154.816 439.134L149.34 450.615L151.419 451.607L154.147 445.888C155.345 443.375 157.383 442.672 159.614 443.736C159.766 443.809 159.917 443.881 160.08 443.985L161.041 441.971C159.026 441.01 157.266 441.021 155.889 442.013ZM167.764 445.177C165.922 444.299 163.963 444.003 162.317 444.387L162.44 446.36C163.689 446.026 165.303 446.211 166.668 446.861C168.726 447.843 169.258 449.347 168.421 451.101L168.225 451.513L164.932 449.942C161.51 448.31 159.595 449.258 158.717 451.099C157.766 453.092 158.751 455.264 161.351 456.504C163.149 457.361 164.716 457.364 165.905 456.655L165.182 458.172L167.153 459.112L170.46 452.18C171.958 449.039 170.905 446.675 167.764 445.177ZM162.462 455.066C160.881 454.312 160.268 453.142 160.816 451.994C161.281 451.019 162.248 450.497 164.306 451.478L167.512 453.008L166.747 454.611C165.597 455.684 164.022 455.81 162.462 455.066ZM182.66 452.282C180.84 451.414 179.047 451.383 177.644 452.15L178.471 450.417L176.478 449.466L171.002 460.947L173.081 461.939L175.902 456.026C177.09 453.534 179.15 452.895 181.36 453.949C183.331 454.889 183.93 456.531 182.856 458.784L179.818 465.153L181.898 466.145L185.049 459.538C186.661 456.158 185.454 453.615 182.66 452.282ZM191.533 468.666C189.323 467.612 188.42 465.214 189.587 462.766C190.755 460.318 193.177 459.532 195.387 460.586C197.575 461.63 198.488 464.007 197.321 466.455C196.153 468.902 193.721 469.71 191.533 468.666ZM358.675 195.615L356.509 194.582L363.741 179.419L365.907 180.452L358.675 195.615ZM369.554 188.839C370.956 188.072 372.75 188.103 374.569 188.971C377.364 190.304 378.57 192.847 376.959 196.226L373.807 202.833L371.728 201.841L374.765 195.472C375.84 193.22 375.24 191.578 373.269 190.637C371.06 189.583 369 190.223 367.811 192.714L364.991 198.628L362.911 197.636L368.387 186.155L370.38 187.106L369.554 188.839ZM394.272 209.722C392.598 210.891 390.473 210.942 388.415 209.96C384.884 208.276 383.517 204.619 385.15 201.197C386.782 197.774 390.474 196.557 394.005 198.241C396.063 199.223 397.371 200.884 397.516 202.921L395.449 203.184C395.25 201.707 394.372 200.65 393.115 200.05C390.862 198.976 388.419 199.751 387.251 202.199C386.063 204.69 387.009 207.056 389.261 208.13C390.518 208.729 391.892 208.747 393.166 207.972L394.272 209.722ZM407.115 211.913L409.946 205.977L412.026 206.969L406.55 218.45L404.578 217.51L405.405 215.777C403.992 216.566 402.242 216.555 400.617 215.78C397.649 214.365 396.453 211.8 398.065 208.421L401.216 201.814L403.296 202.805L400.258 209.174C399.184 211.427 399.773 213.091 401.744 214.031C403.91 215.064 405.937 214.382 407.115 211.913ZM417.977 209.808L417.058 211.736C418.435 210.744 420.195 210.733 422.21 211.694L421.249 213.709C421.086 213.604 420.934 213.532 420.783 213.46C418.552 212.395 416.514 213.099 415.316 215.612L412.588 221.33L410.508 220.339L415.985 208.858L417.977 209.808ZM423.486 214.111C425.132 213.726 427.091 214.022 428.933 214.901C432.074 216.399 433.127 218.762 431.628 221.903L428.322 228.835L426.351 227.895L427.074 226.379C425.885 227.088 424.318 227.085 422.52 226.227C419.92 224.987 418.935 222.816 419.886 220.823C420.764 218.982 422.679 218.033 426.101 219.666L429.394 221.236L429.59 220.825C430.427 219.07 429.895 217.566 427.837 216.585C426.472 215.934 424.858 215.749 423.609 216.084L423.486 214.111ZM421.985 221.718C421.437 222.866 422.05 224.035 423.631 224.79C425.191 225.533 426.766 225.408 427.916 224.334L428.681 222.731L425.475 221.202C423.417 220.22 422.45 220.743 421.985 221.718ZM438.813 221.873C440.216 221.107 442.009 221.138 443.829 222.006C446.623 223.339 447.83 225.882 446.218 229.261L443.067 235.868L440.987 234.876L444.025 228.507C445.099 226.255 444.5 224.613 442.528 223.672C440.319 222.618 438.259 223.258 437.071 225.749L434.25 231.663L432.171 230.671L437.647 219.19L439.64 220.141L438.813 221.873ZM460.38 232.16L463.397 225.835L465.476 226.827L457.81 242.9L455.817 241.949L456.685 240.13C455.133 240.985 453.35 240.933 451.661 240.127C448.303 238.525 446.981 234.996 448.655 231.487C450.329 227.978 453.893 226.806 457.25 228.407C458.875 229.182 460.015 230.471 460.38 232.16ZM450.756 232.489C449.589 234.937 450.492 237.336 452.702 238.39C454.89 239.433 457.322 238.626 458.49 236.178C459.657 233.73 458.744 231.353 456.556 230.31C454.346 229.256 451.924 230.042 450.756 232.489ZM264.585 387.302L266.752 388.335L273.984 373.172L271.818 372.138L264.585 387.302ZM282.646 381.691C280.827 380.823 279.033 380.792 277.63 381.558L278.457 379.826L276.464 378.875L270.988 390.356L273.068 391.348L275.888 385.434C277.076 382.943 279.136 382.303 281.346 383.357C283.317 384.298 283.917 385.94 282.842 388.192L279.804 394.561L281.884 395.553L285.035 388.946C286.647 385.567 285.441 383.024 282.646 381.691ZM296.492 402.68C298.55 403.662 300.674 403.611 302.349 402.442L301.243 400.692C299.969 401.467 298.595 401.449 297.338 400.85C295.085 399.776 294.14 397.41 295.328 394.919C296.495 392.471 298.939 391.696 301.192 392.77C302.449 393.37 303.327 394.427 303.526 395.904L305.593 395.641C305.448 393.604 304.14 391.943 302.082 390.961C298.551 389.277 294.859 390.494 293.227 393.917C291.594 397.339 292.961 400.996 296.492 402.68ZM318.023 398.697L315.192 404.633C314.014 407.102 311.987 407.784 309.821 406.751C307.85 405.811 307.26 404.147 308.335 401.894L311.373 395.525L309.293 394.534L306.142 401.141C304.53 404.52 305.726 407.085 308.694 408.5C310.319 409.275 312.069 409.286 313.482 408.497L312.655 410.23L314.626 411.17L320.102 399.689L318.023 398.697ZM325.135 404.456L326.054 402.528L324.061 401.578L318.585 413.059L320.665 414.05L323.393 408.332C324.591 405.819 326.628 405.115 328.86 406.18L328.86 406.18C329.011 406.252 329.163 406.324 329.326 406.429L330.287 404.414C328.272 403.453 326.512 403.464 325.135 404.456ZM337.009 407.621C335.168 406.742 333.209 406.446 331.563 406.831L331.685 408.804C332.935 408.469 334.549 408.654 335.914 409.305C337.971 410.286 338.504 411.79 337.667 413.545L337.471 413.956L334.178 412.386C330.755 410.753 328.841 411.701 327.963 413.543C327.012 415.536 327.997 417.707 330.596 418.947C332.394 419.805 333.962 419.808 335.151 419.099L334.428 420.615L336.399 421.555L339.705 414.623C341.203 411.482 340.15 409.119 337.009 407.621ZM331.708 417.509C330.126 416.755 329.514 415.586 330.062 414.438C330.527 413.463 331.494 412.94 333.552 413.922L336.758 415.451L335.993 417.054C334.843 418.128 333.267 418.253 331.708 417.509ZM351.905 414.726C350.086 413.858 348.293 413.827 346.89 414.593L347.716 412.861L345.723 411.91L340.247 423.391L342.327 424.383L345.148 418.469C346.336 415.978 348.396 415.338 350.605 416.392C352.577 417.333 353.176 418.975 352.101 421.227L349.064 427.596L351.143 428.588L354.295 421.981C355.906 418.602 354.7 416.059 351.905 414.726ZM371.473 418.555L368.456 424.88C368.092 423.191 366.952 421.902 365.327 421.127C361.969 419.526 358.406 420.698 356.732 424.207C355.058 427.716 356.38 431.245 359.737 432.847C361.427 433.653 363.21 433.705 364.761 432.85L363.893 434.669L365.886 435.62L373.553 419.547L371.473 418.555ZM360.779 431.11C358.569 430.056 357.666 427.657 358.833 425.209C360.001 422.762 362.423 421.976 364.632 423.03C366.82 424.073 367.734 426.45 366.567 428.898C365.399 431.346 362.966 432.153 360.779 431.11ZM525.754 157.026L527.92 158.059L535.153 142.895L532.987 141.862L525.754 157.026ZM543.815 151.414C541.995 150.546 540.202 150.515 538.799 151.282L539.626 149.549L537.633 148.599L532.157 160.079L534.236 161.071L537.057 155.158C538.245 152.666 540.305 152.027 542.515 153.081C544.486 154.021 545.086 155.663 544.011 157.916L540.973 164.285L543.053 165.277L546.204 158.67C547.816 155.29 546.609 152.747 543.815 151.414ZM557.661 172.404C559.719 173.385 561.843 173.335 563.518 172.166L562.412 170.415C561.138 171.19 559.763 171.173 558.507 170.574C556.254 169.499 555.308 167.134 556.497 164.643C557.664 162.195 560.108 161.419 562.361 162.494C563.617 163.093 564.496 164.15 564.695 165.628L566.762 165.364C566.617 163.327 565.308 161.666 563.251 160.685C559.72 159 556.028 160.218 554.396 163.64C552.763 167.063 554.13 170.72 557.661 172.404ZM579.192 168.421L576.361 174.357C575.183 176.826 573.156 177.508 570.99 176.475C569.018 175.534 568.429 173.871 569.504 171.618L572.542 165.249L570.462 164.257L567.311 170.864C565.699 174.243 566.895 176.808 569.863 178.224C571.487 178.999 573.237 179.009 574.651 178.221L573.824 179.954L575.795 180.894L581.271 169.413L579.192 168.421ZM586.304 174.18L587.223 172.252L585.23 171.301L579.754 182.782L581.834 183.774L584.561 178.055C585.76 175.543 587.797 174.839 590.028 175.903C590.18 175.976 590.332 176.048 590.495 176.152L591.456 174.138C589.441 173.177 587.681 173.188 586.304 174.18ZM598.178 177.344C596.337 176.466 594.378 176.17 592.732 176.555L592.854 178.527C594.104 178.193 595.718 178.378 597.082 179.029C599.14 180.01 599.673 181.514 598.836 183.268L598.64 183.68L595.347 182.11C591.924 180.477 590.01 181.425 589.131 183.266C588.181 185.259 589.166 187.431 591.765 188.671C593.563 189.528 595.131 189.531 596.32 188.822L595.597 190.339L597.568 191.279L600.874 184.347C602.372 181.206 601.319 178.842 598.178 177.344ZM592.877 187.233C591.295 186.479 590.683 185.309 591.231 184.161C591.696 183.187 592.663 182.664 594.721 183.646L597.927 185.175L597.162 186.778C596.012 187.851 594.436 187.977 592.877 187.233ZM613.074 184.449C611.255 183.581 609.461 183.55 608.059 184.317L608.885 182.584L606.892 181.634L601.416 193.114L603.496 194.106L606.316 188.193C607.505 185.701 609.565 185.062 611.774 186.116C613.745 187.056 614.345 188.698 613.27 190.951L610.233 197.32L612.312 198.312L615.464 191.705C617.075 188.325 615.869 185.782 613.074 184.449ZM435.997 350.779L433.831 349.746L441.064 334.582L443.23 335.615L435.997 350.779ZM446.876 344.002C448.279 343.235 450.072 343.266 451.892 344.134C454.686 345.467 455.893 348.01 454.281 351.39L451.13 357.997L449.05 357.005L452.088 350.636C453.162 348.383 452.563 346.741 450.592 345.801C448.382 344.747 446.322 345.386 445.134 347.878L442.313 353.791L440.234 352.799L445.71 341.319L447.703 342.269L446.876 344.002ZM471.595 364.886C469.92 366.055 467.796 366.105 465.738 365.124C462.207 363.44 460.84 359.783 462.472 356.36C464.105 352.938 467.796 351.72 471.327 353.405C473.385 354.386 474.694 356.047 474.839 358.084L472.772 358.348C472.573 356.87 471.694 355.813 470.438 355.214C468.185 354.139 465.741 354.915 464.574 357.363C463.385 359.854 464.331 362.219 466.584 363.294C467.84 363.893 469.215 363.91 470.488 363.135L471.595 364.886ZM484.438 367.077L487.269 361.141L489.348 362.133L483.872 373.614L481.901 372.674L482.727 370.941C481.314 371.729 479.564 371.719 477.94 370.944C474.972 369.528 473.776 366.963 475.387 363.584L478.539 356.977L480.618 357.969L477.581 364.338C476.506 366.591 477.095 368.254 479.066 369.195C481.233 370.228 483.26 369.546 484.438 367.077ZM495.3 364.972L494.38 366.9C495.757 365.908 497.518 365.897 499.532 366.858L498.571 368.872C498.409 368.768 498.257 368.696 498.105 368.623C495.874 367.559 493.837 368.263 492.638 370.775L489.91 376.494L487.831 375.502L493.307 364.021L495.3 364.972ZM500.808 369.275C502.455 368.89 504.414 369.186 506.255 370.064C509.396 371.562 510.449 373.926 508.951 377.067L505.645 383.999L503.673 383.059L504.397 381.542C503.207 382.251 501.64 382.248 499.842 381.391C497.243 380.151 496.258 377.979 497.208 375.986C498.086 374.145 500.001 373.197 503.424 374.83L506.716 376.4L506.913 375.988C507.75 374.234 507.217 372.73 505.159 371.749C503.794 371.098 502.181 370.913 500.931 371.247L500.808 369.275ZM499.307 376.881C498.76 378.029 499.372 379.199 500.953 379.953C502.513 380.697 504.089 380.571 505.239 379.498L506.003 377.895L502.797 376.366C500.74 375.384 499.772 375.906 499.307 376.881ZM516.135 377.037C517.538 376.27 519.331 376.301 521.151 377.169C523.945 378.502 525.152 381.045 523.54 384.425L520.389 391.032L518.309 390.04L521.347 383.671C522.422 381.418 521.822 379.776 519.851 378.836C517.641 377.782 515.581 378.421 514.393 380.913L511.573 386.826L509.493 385.834L514.969 374.354L516.962 375.304L516.135 377.037ZM537.702 387.324L540.719 380.999L542.799 381.99L535.132 398.064L533.139 397.113L534.007 395.293C532.456 396.149 530.673 396.096 528.983 395.29C525.625 393.689 524.304 390.16 525.978 386.651C527.651 383.142 531.215 381.97 534.573 383.571C536.197 384.346 537.338 385.634 537.702 387.324ZM528.079 387.653C526.911 390.101 527.815 392.499 530.024 393.553C532.212 394.597 534.645 393.789 535.812 391.342C536.98 388.894 536.066 386.517 533.878 385.473C531.669 384.419 529.246 385.205 528.079 387.653ZM603.077 312.189L605.243 313.222L612.476 298.059L610.309 297.026L603.077 312.189ZM621.138 306.578C619.318 305.71 617.525 305.679 616.122 306.446L616.948 304.713L614.955 303.762L609.479 315.243L611.559 316.235L614.38 310.321C615.568 307.83 617.628 307.19 619.837 308.244C621.809 309.185 622.408 310.827 621.333 313.079L618.296 319.448L620.375 320.44L623.527 313.833C625.139 310.454 623.932 307.911 621.138 306.578Z" fill="#070F17"/>
</svg>
